<mxfile host="65bd71144e">
    <diagram id="yL-rEVnqnpewwGLNH99c" name="Preliminar Routes">
        <mxGraphModel dx="2252" dy="1122" grid="1" gridSize="10" guides="1" tooltips="1" connect="1" arrows="1" fold="1" page="1" pageScale="1" pageWidth="850" pageHeight="1100" math="0" shadow="0">
            <root>
                <mxCell id="0"/>
                <mxCell id="1" parent="0"/>
                <mxCell id="119" style="edgeStyle=none;html=1;entryX=0;entryY=0.5;entryDx=0;entryDy=0;" parent="1" source="30" target="36" edge="1">
                    <mxGeometry relative="1" as="geometry">
                        <Array as="points">
                            <mxPoint x="400" y="420"/>
                            <mxPoint x="400" y="280"/>
                        </Array>
                    </mxGeometry>
                </mxCell>
                <mxCell id="30" value="" style="rounded=0;whiteSpace=wrap;html=1;shadow=0;sketch=0;" parent="1" vertex="1">
                    <mxGeometry x="-92.5" y="385" width="450" height="70" as="geometry"/>
                </mxCell>
                <mxCell id="14" style="edgeStyle=none;html=1;exitX=0.5;exitY=0;exitDx=0;exitDy=0;entryX=0.5;entryY=1;entryDx=0;entryDy=0;" parent="1" source="12" target="26" edge="1">
                    <mxGeometry relative="1" as="geometry"/>
                </mxCell>
                <mxCell id="21" style="edgeStyle=none;html=1;entryX=0.5;entryY=0;entryDx=0;entryDy=0;startArrow=none;" parent="1" source="36" target="17" edge="1">
                    <mxGeometry relative="1" as="geometry">
                        <Array as="points">
                            <mxPoint x="894" y="280"/>
                        </Array>
                    </mxGeometry>
                </mxCell>
                <mxCell id="29" style="edgeStyle=none;html=1;exitX=0;exitY=0.5;exitDx=0;exitDy=0;entryX=1;entryY=0.5;entryDx=0;entryDy=0;" parent="1" source="12" target="28" edge="1">
                    <mxGeometry relative="1" as="geometry"/>
                </mxCell>
                <mxCell id="46" style="edgeStyle=none;html=1;" parent="1" source="12" target="36" edge="1">
                    <mxGeometry relative="1" as="geometry"/>
                </mxCell>
                <mxCell id="12" value="" style="ellipse;whiteSpace=wrap;html=1;aspect=fixed;shadow=0;sketch=0;" parent="1" vertex="1">
                    <mxGeometry x="235" y="240" width="80" height="80" as="geometry"/>
                </mxCell>
                <mxCell id="13" value="ROOT-ROUTER" style="rounded=1;whiteSpace=wrap;html=1;shadow=0;sketch=0;" parent="1" vertex="1">
                    <mxGeometry x="220" y="40" width="110" height="30" as="geometry"/>
                </mxCell>
                <mxCell id="69" style="edgeStyle=none;html=1;entryX=1;entryY=0.25;entryDx=0;entryDy=0;" parent="1" target="16" edge="1">
                    <mxGeometry relative="1" as="geometry">
                        <mxPoint x="160" y="410" as="sourcePoint"/>
                    </mxGeometry>
                </mxCell>
                <mxCell id="15" value="SIGN-IN VIEW" style="rounded=1;whiteSpace=wrap;html=1;shadow=0;sketch=0;" parent="1" vertex="1">
                    <mxGeometry x="162.5" y="400" width="180" height="40" as="geometry"/>
                </mxCell>
                <mxCell id="70" style="edgeStyle=none;html=1;exitX=1;exitY=0.75;exitDx=0;exitDy=0;entryX=0;entryY=0.75;entryDx=0;entryDy=0;" parent="1" source="16" target="15" edge="1">
                    <mxGeometry relative="1" as="geometry"/>
                </mxCell>
                <mxCell id="16" value="LOG-IN VIEW" style="rounded=1;whiteSpace=wrap;html=1;shadow=0;sketch=0;" parent="1" vertex="1">
                    <mxGeometry x="-82.5" y="400" width="180" height="40" as="geometry"/>
                </mxCell>
                <mxCell id="24" style="edgeStyle=none;html=1;entryX=0.5;entryY=0;entryDx=0;entryDy=0;" parent="1" source="17" target="22" edge="1">
                    <mxGeometry relative="1" as="geometry"/>
                </mxCell>
                <mxCell id="17" value="ADMIN DAHSBOARD ROOT VIEW" style="rounded=1;whiteSpace=wrap;html=1;shadow=0;sketch=0;" parent="1" vertex="1">
                    <mxGeometry x="800" y="400" width="187.5" height="40" as="geometry"/>
                </mxCell>
                <mxCell id="52" style="edgeStyle=none;html=1;exitX=0.5;exitY=1;exitDx=0;exitDy=0;entryX=0.5;entryY=0;entryDx=0;entryDy=0;" parent="1" source="22" target="51" edge="1">
                    <mxGeometry relative="1" as="geometry"/>
                </mxCell>
                <mxCell id="22" value="CHILD-ROUTER" style="rounded=1;whiteSpace=wrap;html=1;shadow=0;sketch=0;arcSize=50;" parent="1" vertex="1">
                    <mxGeometry x="838.75" y="490" width="110" height="30" as="geometry"/>
                </mxCell>
                <mxCell id="27" style="edgeStyle=none;html=1;exitX=0.5;exitY=0;exitDx=0;exitDy=0;entryX=0.5;entryY=1;entryDx=0;entryDy=0;" parent="1" source="26" target="13" edge="1">
                    <mxGeometry relative="1" as="geometry"/>
                </mxCell>
                <mxCell id="26" value="LANDING PAGE VIEW" style="rounded=1;whiteSpace=wrap;html=1;shadow=0;sketch=0;" parent="1" vertex="1">
                    <mxGeometry x="185" y="140" width="180" height="40" as="geometry"/>
                </mxCell>
                <mxCell id="31" style="edgeStyle=none;html=1;exitX=0.5;exitY=1;exitDx=0;exitDy=0;" parent="1" source="28" target="30" edge="1">
                    <mxGeometry relative="1" as="geometry"/>
                </mxCell>
                <mxCell id="33" style="edgeStyle=none;html=1;exitX=0;exitY=0.5;exitDx=0;exitDy=0;entryX=0.5;entryY=0;entryDx=0;entryDy=0;" parent="1" source="28" target="32" edge="1">
                    <mxGeometry relative="1" as="geometry">
                        <Array as="points">
                            <mxPoint x="-245" y="280"/>
                        </Array>
                    </mxGeometry>
                </mxCell>
                <mxCell id="28" value="LOGGED IN?" style="rhombus;whiteSpace=wrap;html=1;shadow=0;sketch=0;" parent="1" vertex="1">
                    <mxGeometry x="80" y="230" width="105" height="100" as="geometry"/>
                </mxCell>
                <mxCell id="32" value="PROFILE ROOT VIEW" style="rounded=1;whiteSpace=wrap;html=1;shadow=0;sketch=0;" parent="1" vertex="1">
                    <mxGeometry x="-335" y="400" width="180" height="40" as="geometry"/>
                </mxCell>
                <mxCell id="34" value="NO" style="text;html=1;align=center;verticalAlign=middle;resizable=0;points=[];autosize=1;strokeColor=none;fillColor=none;" parent="1" vertex="1">
                    <mxGeometry x="97.5" y="340" width="30" height="20" as="geometry"/>
                </mxCell>
                <mxCell id="35" value="YES" style="text;html=1;align=center;verticalAlign=middle;resizable=0;points=[];autosize=1;strokeColor=none;fillColor=none;" parent="1" vertex="1">
                    <mxGeometry x="25" y="280" width="40" height="20" as="geometry"/>
                </mxCell>
                <mxCell id="50" style="edgeStyle=none;html=1;entryX=0.5;entryY=0;entryDx=0;entryDy=0;" parent="1" source="36" target="48" edge="1">
                    <mxGeometry relative="1" as="geometry"/>
                </mxCell>
                <mxCell id="36" value="PRIVILEGES?" style="rhombus;whiteSpace=wrap;html=1;shadow=0;sketch=0;" parent="1" vertex="1">
                    <mxGeometry x="523.75" y="230" width="100" height="100" as="geometry"/>
                </mxCell>
                <mxCell id="47" style="edgeStyle=none;html=1;entryX=0.5;entryY=0;entryDx=0;entryDy=0;" parent="1" source="48" target="49" edge="1">
                    <mxGeometry relative="1" as="geometry"/>
                </mxCell>
                <mxCell id="48" value="DAHSBOARD ROOT VIEW" style="rounded=1;whiteSpace=wrap;html=1;shadow=0;sketch=0;" parent="1" vertex="1">
                    <mxGeometry x="480" y="400" width="187.5" height="40" as="geometry"/>
                </mxCell>
                <mxCell id="54" style="edgeStyle=none;html=1;exitX=0.5;exitY=1;exitDx=0;exitDy=0;" parent="1" source="49" target="53" edge="1">
                    <mxGeometry relative="1" as="geometry"/>
                </mxCell>
                <mxCell id="49" value="CHILD-ROUTER" style="rounded=1;whiteSpace=wrap;html=1;shadow=0;sketch=0;arcSize=50;" parent="1" vertex="1">
                    <mxGeometry x="518.75" y="490" width="110" height="30" as="geometry"/>
                </mxCell>
                <mxCell id="90" style="edgeStyle=none;html=1;" parent="1" source="51" target="85" edge="1">
                    <mxGeometry relative="1" as="geometry"/>
                </mxCell>
                <mxCell id="92" style="edgeStyle=none;html=1;entryX=0.5;entryY=0;entryDx=0;entryDy=0;exitX=1;exitY=0.5;exitDx=0;exitDy=0;" parent="1" source="51" target="89" edge="1">
                    <mxGeometry relative="1" as="geometry">
                        <Array as="points">
                            <mxPoint x="1814" y="600"/>
                        </Array>
                    </mxGeometry>
                </mxCell>
                <mxCell id="93" style="edgeStyle=none;html=1;entryX=0.5;entryY=0;entryDx=0;entryDy=0;" parent="1" source="51" target="86" edge="1">
                    <mxGeometry relative="1" as="geometry">
                        <Array as="points">
                            <mxPoint x="1124" y="600"/>
                        </Array>
                    </mxGeometry>
                </mxCell>
                <mxCell id="94" style="edgeStyle=none;html=1;entryX=0.5;entryY=0;entryDx=0;entryDy=0;" parent="1" source="51" target="87" edge="1">
                    <mxGeometry relative="1" as="geometry">
                        <Array as="points">
                            <mxPoint x="1354" y="600"/>
                        </Array>
                    </mxGeometry>
                </mxCell>
                <mxCell id="95" style="edgeStyle=none;html=1;entryX=0.5;entryY=0;entryDx=0;entryDy=0;" parent="1" source="51" target="88" edge="1">
                    <mxGeometry relative="1" as="geometry">
                        <Array as="points">
                            <mxPoint x="1584" y="600"/>
                        </Array>
                    </mxGeometry>
                </mxCell>
                <mxCell id="51" value="" style="ellipse;whiteSpace=wrap;html=1;aspect=fixed;shadow=0;sketch=0;" parent="1" vertex="1">
                    <mxGeometry x="853.75" y="560" width="80" height="80" as="geometry"/>
                </mxCell>
                <mxCell id="59" style="edgeStyle=none;html=1;entryX=1;entryY=0.5;entryDx=0;entryDy=0;" parent="1" source="53" target="55" edge="1">
                    <mxGeometry relative="1" as="geometry"/>
                </mxCell>
                <mxCell id="53" value="BOARDS ROOT VIEW" style="rounded=1;whiteSpace=wrap;html=1;shadow=0;sketch=0;" parent="1" vertex="1">
                    <mxGeometry x="480" y="580" width="187.5" height="40" as="geometry"/>
                </mxCell>
                <mxCell id="58" style="edgeStyle=none;html=1;" parent="1" source="55" target="57" edge="1">
                    <mxGeometry relative="1" as="geometry"/>
                </mxCell>
                <mxCell id="55" value="CHILD-ROUTER" style="rounded=1;whiteSpace=wrap;html=1;shadow=0;sketch=0;arcSize=50;" parent="1" vertex="1">
                    <mxGeometry x="288.75" y="586" width="110" height="30" as="geometry"/>
                </mxCell>
                <mxCell id="61" style="edgeStyle=none;html=1;entryX=1;entryY=0.5;entryDx=0;entryDy=0;" parent="1" source="57" target="60" edge="1">
                    <mxGeometry relative="1" as="geometry"/>
                </mxCell>
                <mxCell id="57" value="CHANNELS ROOT VIEW" style="rounded=1;whiteSpace=wrap;html=1;shadow=0;sketch=0;" parent="1" vertex="1">
                    <mxGeometry x="250" y="656" width="187.5" height="40" as="geometry"/>
                </mxCell>
                <mxCell id="65" style="edgeStyle=none;html=1;" parent="1" source="60" target="64" edge="1">
                    <mxGeometry relative="1" as="geometry"/>
                </mxCell>
                <mxCell id="60" value="CHILD-ROUTER" style="rounded=1;whiteSpace=wrap;html=1;shadow=0;sketch=0;arcSize=50;" parent="1" vertex="1">
                    <mxGeometry x="65" y="661" width="110" height="30" as="geometry"/>
                </mxCell>
                <mxCell id="81" style="edgeStyle=none;html=1;entryX=0;entryY=0.5;entryDx=0;entryDy=0;" parent="1" source="64" target="66" edge="1">
                    <mxGeometry relative="1" as="geometry"/>
                </mxCell>
                <mxCell id="82" style="edgeStyle=none;html=1;" parent="1" source="64" target="80" edge="1">
                    <mxGeometry relative="1" as="geometry"/>
                </mxCell>
                <mxCell id="64" value="ARTICLES ROOT VIEW" style="rounded=1;whiteSpace=wrap;html=1;shadow=0;sketch=0;" parent="1" vertex="1">
                    <mxGeometry x="25" y="790" width="187.5" height="40" as="geometry"/>
                </mxCell>
                <mxCell id="72" style="edgeStyle=none;html=1;" parent="1" source="66" target="71" edge="1">
                    <mxGeometry relative="1" as="geometry"/>
                </mxCell>
                <mxCell id="66" value="IS VERIFIED?" style="rhombus;whiteSpace=wrap;html=1;" parent="1" vertex="1">
                    <mxGeometry x="328.75" y="760" width="100" height="100" as="geometry"/>
                </mxCell>
                <mxCell id="74" style="edgeStyle=none;html=1;entryX=0.5;entryY=0;entryDx=0;entryDy=0;" parent="1" source="71" target="73" edge="1">
                    <mxGeometry relative="1" as="geometry"/>
                </mxCell>
                <mxCell id="71" value="CREATE ARTICLE ROOT VIEW" style="rounded=1;whiteSpace=wrap;html=1;shadow=0;sketch=0;" parent="1" vertex="1">
                    <mxGeometry x="283.75" y="900" width="187.5" height="40" as="geometry"/>
                </mxCell>
                <mxCell id="77" style="edgeStyle=none;html=1;entryX=0.5;entryY=0;entryDx=0;entryDy=0;" parent="1" source="73" target="75" edge="1">
                    <mxGeometry relative="1" as="geometry">
                        <Array as="points">
                            <mxPoint x="511.75" y="1020"/>
                        </Array>
                    </mxGeometry>
                </mxCell>
                <mxCell id="78" style="edgeStyle=none;html=1;entryX=0.5;entryY=0;entryDx=0;entryDy=0;" parent="1" source="73" target="76" edge="1">
                    <mxGeometry relative="1" as="geometry">
                        <Array as="points">
                            <mxPoint x="243.75" y="1020"/>
                        </Array>
                    </mxGeometry>
                </mxCell>
                <mxCell id="73" value="" style="ellipse;whiteSpace=wrap;html=1;aspect=fixed;shadow=0;sketch=0;" parent="1" vertex="1">
                    <mxGeometry x="337.5" y="980" width="80" height="80" as="geometry"/>
                </mxCell>
                <mxCell id="75" value="EDIT POST VIEW" style="rounded=1;whiteSpace=wrap;html=1;shadow=0;sketch=0;" parent="1" vertex="1">
                    <mxGeometry x="417.5" y="1070" width="187.5" height="40" as="geometry"/>
                </mxCell>
                <mxCell id="76" value="PREVIEW POST VIEW" style="rounded=1;whiteSpace=wrap;html=1;shadow=0;sketch=0;" parent="1" vertex="1">
                    <mxGeometry x="150" y="1070" width="187.5" height="40" as="geometry"/>
                </mxCell>
                <mxCell id="79" value="YES" style="text;html=1;align=center;verticalAlign=middle;resizable=0;points=[];autosize=1;strokeColor=none;fillColor=none;" parent="1" vertex="1">
                    <mxGeometry x="377.5" y="870" width="40" height="20" as="geometry"/>
                </mxCell>
                <mxCell id="84" style="edgeStyle=none;html=1;" parent="1" source="80" target="83" edge="1">
                    <mxGeometry relative="1" as="geometry"/>
                </mxCell>
                <mxCell id="80" value="CHILD-ROUTER" style="rounded=1;whiteSpace=wrap;html=1;shadow=0;sketch=0;arcSize=50;" parent="1" vertex="1">
                    <mxGeometry x="-202.5" y="795" width="110" height="30" as="geometry"/>
                </mxCell>
                <mxCell id="83" value="ARTICLE VIEW" style="rounded=1;whiteSpace=wrap;html=1;shadow=0;sketch=0;" parent="1" vertex="1">
                    <mxGeometry x="-241.25" y="870" width="187.5" height="40" as="geometry"/>
                </mxCell>
                <mxCell id="97" style="edgeStyle=none;html=1;" parent="1" source="85" target="96" edge="1">
                    <mxGeometry relative="1" as="geometry"/>
                </mxCell>
                <mxCell id="85" value="HOME ROOT&amp;nbsp;VIEW" style="rounded=1;whiteSpace=wrap;html=1;shadow=0;sketch=0;" parent="1" vertex="1">
                    <mxGeometry x="800" y="696" width="187.5" height="40" as="geometry"/>
                </mxCell>
                <mxCell id="101" style="edgeStyle=none;html=1;entryX=0.5;entryY=0;entryDx=0;entryDy=0;" parent="1" source="86" target="100" edge="1">
                    <mxGeometry relative="1" as="geometry"/>
                </mxCell>
                <mxCell id="86" value="TOPICS ROOT VIEW" style="rounded=1;whiteSpace=wrap;html=1;shadow=0;sketch=0;" parent="1" vertex="1">
                    <mxGeometry x="1030" y="696" width="187.5" height="40" as="geometry"/>
                </mxCell>
                <mxCell id="87" value="USERS VIEW" style="rounded=1;whiteSpace=wrap;html=1;shadow=0;sketch=0;" parent="1" vertex="1">
                    <mxGeometry x="1260" y="696" width="187.5" height="40" as="geometry"/>
                </mxCell>
                <mxCell id="88" value="REPORTS VIEW" style="rounded=1;whiteSpace=wrap;html=1;shadow=0;sketch=0;" parent="1" vertex="1">
                    <mxGeometry x="1490" y="696" width="187.5" height="40" as="geometry"/>
                </mxCell>
                <mxCell id="89" value="CMS VIEW" style="rounded=1;whiteSpace=wrap;html=1;shadow=0;sketch=0;" parent="1" vertex="1">
                    <mxGeometry x="1720" y="696" width="187.5" height="40" as="geometry"/>
                </mxCell>
                <mxCell id="99" style="edgeStyle=none;html=1;" parent="1" source="96" target="98" edge="1">
                    <mxGeometry relative="1" as="geometry"/>
                </mxCell>
                <mxCell id="96" value="CHILD-ROUTER" style="rounded=1;whiteSpace=wrap;html=1;shadow=0;sketch=0;arcSize=50;" parent="1" vertex="1">
                    <mxGeometry x="838.75" y="780" width="110" height="30" as="geometry"/>
                </mxCell>
                <mxCell id="98" value="NEWS VIEW" style="rounded=1;whiteSpace=wrap;html=1;shadow=0;sketch=0;" parent="1" vertex="1">
                    <mxGeometry x="800" y="850" width="187.5" height="40" as="geometry"/>
                </mxCell>
                <mxCell id="103" style="edgeStyle=none;html=1;entryX=0.5;entryY=0;entryDx=0;entryDy=0;" parent="1" source="100" target="102" edge="1">
                    <mxGeometry relative="1" as="geometry"/>
                </mxCell>
                <mxCell id="100" value="CHILD-ROUTER" style="rounded=1;whiteSpace=wrap;html=1;shadow=0;sketch=0;arcSize=50;" parent="1" vertex="1">
                    <mxGeometry x="1068.75" y="780" width="110" height="30" as="geometry"/>
                </mxCell>
                <mxCell id="110" style="edgeStyle=none;html=1;entryX=0;entryY=0.5;entryDx=0;entryDy=0;" parent="1" source="102" target="109" edge="1">
                    <mxGeometry relative="1" as="geometry">
                        <Array as="points">
                            <mxPoint x="1124" y="1140"/>
                        </Array>
                    </mxGeometry>
                </mxCell>
                <mxCell id="111" style="edgeStyle=none;html=1;entryX=0;entryY=0.5;entryDx=0;entryDy=0;" parent="1" source="102" target="107" edge="1">
                    <mxGeometry relative="1" as="geometry">
                        <Array as="points">
                            <mxPoint x="1124" y="980"/>
                        </Array>
                    </mxGeometry>
                </mxCell>
                <mxCell id="112" style="edgeStyle=none;html=1;entryX=0;entryY=0.5;entryDx=0;entryDy=0;" parent="1" source="102" target="108" edge="1">
                    <mxGeometry relative="1" as="geometry">
                        <Array as="points">
                            <mxPoint x="1124" y="1060"/>
                        </Array>
                    </mxGeometry>
                </mxCell>
                <mxCell id="102" value="" style="ellipse;whiteSpace=wrap;html=1;aspect=fixed;shadow=0;sketch=0;" parent="1" vertex="1">
                    <mxGeometry x="1083.75" y="840" width="80" height="80" as="geometry"/>
                </mxCell>
                <mxCell id="104" value="NO" style="text;html=1;align=center;verticalAlign=middle;resizable=0;points=[];autosize=1;strokeColor=none;fillColor=none;" parent="1" vertex="1">
                    <mxGeometry x="575" y="330" width="30" height="20" as="geometry"/>
                </mxCell>
                <mxCell id="105" value="YES" style="text;html=1;align=center;verticalAlign=middle;resizable=0;points=[];autosize=1;strokeColor=none;fillColor=none;" parent="1" vertex="1">
                    <mxGeometry x="628.75" y="260" width="40" height="20" as="geometry"/>
                </mxCell>
                <mxCell id="116" style="edgeStyle=none;html=1;" parent="1" source="107" edge="1">
                    <mxGeometry relative="1" as="geometry">
                        <mxPoint x="1420" y="1060" as="targetPoint"/>
                        <Array as="points">
                            <mxPoint x="1400" y="980"/>
                            <mxPoint x="1400" y="1060"/>
                        </Array>
                    </mxGeometry>
                </mxCell>
                <mxCell id="107" value="BOARDS VIEW" style="rounded=1;whiteSpace=wrap;html=1;shadow=0;sketch=0;" parent="1" vertex="1">
                    <mxGeometry x="1160" y="960" width="187.5" height="40" as="geometry"/>
                </mxCell>
                <mxCell id="115" style="edgeStyle=none;html=1;entryX=0;entryY=0.5;entryDx=0;entryDy=0;" parent="1" source="108" target="113" edge="1">
                    <mxGeometry relative="1" as="geometry"/>
                </mxCell>
                <mxCell id="108" value="CHANNELS VIEW" style="rounded=1;whiteSpace=wrap;html=1;shadow=0;sketch=0;" parent="1" vertex="1">
                    <mxGeometry x="1160" y="1040" width="187.5" height="40" as="geometry"/>
                </mxCell>
                <mxCell id="114" style="edgeStyle=none;html=1;entryX=0;entryY=0.5;entryDx=0;entryDy=0;" parent="1" source="109" target="113" edge="1">
                    <mxGeometry relative="1" as="geometry">
                        <mxPoint x="1379.9999999999995" y="1140" as="targetPoint"/>
                        <Array as="points">
                            <mxPoint x="1400" y="1140"/>
                            <mxPoint x="1400" y="1060"/>
                        </Array>
                    </mxGeometry>
                </mxCell>
                <mxCell id="109" value="ARTICLES VIEW" style="rounded=1;whiteSpace=wrap;html=1;shadow=0;sketch=0;" parent="1" vertex="1">
                    <mxGeometry x="1160" y="1120" width="187.5" height="40" as="geometry"/>
                </mxCell>
                <mxCell id="118" style="edgeStyle=none;html=1;" parent="1" source="113" target="117" edge="1">
                    <mxGeometry relative="1" as="geometry"/>
                </mxCell>
                <mxCell id="113" value="CHILD-COMPONENT-ROUTER" style="rounded=1;whiteSpace=wrap;html=1;shadow=0;sketch=0;arcSize=50;" parent="1" vertex="1">
                    <mxGeometry x="1420" y="1045" width="200" height="30" as="geometry"/>
                </mxCell>
                <mxCell id="117" value="EDIT VIEW" style="rounded=1;whiteSpace=wrap;html=1;shadow=0;sketch=0;" parent="1" vertex="1">
                    <mxGeometry x="1670" y="1040" width="187.5" height="40" as="geometry"/>
                </mxCell>
            </root>
        </mxGraphModel>
    </diagram>
    <diagram id="ux_GjhKosoBnVBOw03yN" name="Routes">
        <mxGraphModel dx="3855" dy="1450" grid="1" gridSize="10" guides="1" tooltips="1" connect="1" arrows="1" fold="1" page="1" pageScale="1" pageWidth="850" pageHeight="1100" math="0" shadow="0">
            <root>
                <mxCell id="CBwO-R-Ii1OIMNnKbIEP-0"/>
                <mxCell id="CBwO-R-Ii1OIMNnKbIEP-1" parent="CBwO-R-Ii1OIMNnKbIEP-0"/>
                <mxCell id="Air7IKERd5YMMg7ctZau-6" value="" style="group;fillColor=#a20025;fontColor=#ffffff;strokeColor=#6F0000;" parent="CBwO-R-Ii1OIMNnKbIEP-1" vertex="1" connectable="0">
                    <mxGeometry x="300" y="290" width="250" height="60" as="geometry"/>
                </mxCell>
                <mxCell id="Air7IKERd5YMMg7ctZau-3" value="" style="rounded=0;whiteSpace=wrap;html=1;fontSize=18;" parent="Air7IKERd5YMMg7ctZau-6" vertex="1">
                    <mxGeometry width="250" height="60" as="geometry"/>
                </mxCell>
                <mxCell id="Air7IKERd5YMMg7ctZau-1" value="Sign-in" style="rounded=1;whiteSpace=wrap;html=1;fontSize=18;fillColor=#a20025;fontColor=#ffffff;strokeColor=#6F0000;" parent="Air7IKERd5YMMg7ctZau-6" vertex="1">
                    <mxGeometry x="10" y="10" width="90" height="40" as="geometry"/>
                </mxCell>
                <mxCell id="Air7IKERd5YMMg7ctZau-5" style="edgeStyle=none;html=1;exitX=0;exitY=0.75;exitDx=0;exitDy=0;entryX=1;entryY=0.75;entryDx=0;entryDy=0;fontSize=18;" parent="Air7IKERd5YMMg7ctZau-6" source="Air7IKERd5YMMg7ctZau-2" target="Air7IKERd5YMMg7ctZau-1" edge="1">
                    <mxGeometry relative="1" as="geometry"/>
                </mxCell>
                <mxCell id="Air7IKERd5YMMg7ctZau-2" value="Sign-up" style="rounded=1;whiteSpace=wrap;html=1;fontSize=18;fillColor=#a20025;fontColor=#ffffff;strokeColor=#6F0000;" parent="Air7IKERd5YMMg7ctZau-6" vertex="1">
                    <mxGeometry x="150" y="10" width="90" height="40" as="geometry"/>
                </mxCell>
                <mxCell id="Air7IKERd5YMMg7ctZau-4" style="edgeStyle=none;html=1;exitX=1;exitY=0.25;exitDx=0;exitDy=0;entryX=0;entryY=0.25;entryDx=0;entryDy=0;fontSize=18;" parent="Air7IKERd5YMMg7ctZau-6" source="Air7IKERd5YMMg7ctZau-1" target="Air7IKERd5YMMg7ctZau-2" edge="1">
                    <mxGeometry relative="1" as="geometry"/>
                </mxCell>
                <mxCell id="Air7IKERd5YMMg7ctZau-10" style="edgeStyle=none;html=1;exitX=0.5;exitY=0;exitDx=0;exitDy=0;fontSize=18;" parent="CBwO-R-Ii1OIMNnKbIEP-1" source="Air7IKERd5YMMg7ctZau-0" target="Air7IKERd5YMMg7ctZau-9" edge="1">
                    <mxGeometry relative="1" as="geometry"/>
                </mxCell>
                <mxCell id="Air7IKERd5YMMg7ctZau-11" value="localhost:4200/" style="edgeLabel;html=1;align=center;verticalAlign=middle;resizable=0;points=[];fontSize=18;" parent="Air7IKERd5YMMg7ctZau-10" vertex="1" connectable="0">
                    <mxGeometry x="0.264" y="-2" relative="1" as="geometry">
                        <mxPoint x="-2" y="14" as="offset"/>
                    </mxGeometry>
                </mxCell>
                <mxCell id="Air7IKERd5YMMg7ctZau-12" style="edgeStyle=none;html=1;entryX=0.5;entryY=0;entryDx=0;entryDy=0;fontSize=18;" parent="CBwO-R-Ii1OIMNnKbIEP-1" source="Air7IKERd5YMMg7ctZau-0" target="Air7IKERd5YMMg7ctZau-1" edge="1">
                    <mxGeometry relative="1" as="geometry">
                        <Array as="points">
                            <mxPoint x="425" y="230"/>
                            <mxPoint x="355" y="230"/>
                        </Array>
                    </mxGeometry>
                </mxCell>
                <mxCell id="Air7IKERd5YMMg7ctZau-14" value="localhost:4200/signin" style="edgeLabel;html=1;align=center;verticalAlign=middle;resizable=0;points=[];fontSize=18;" parent="Air7IKERd5YMMg7ctZau-12" vertex="1" connectable="0">
                    <mxGeometry x="-0.3983" y="1" relative="1" as="geometry">
                        <mxPoint x="-62" y="29" as="offset"/>
                    </mxGeometry>
                </mxCell>
                <mxCell id="Air7IKERd5YMMg7ctZau-13" value="localhost:4200/signup" style="edgeStyle=none;html=1;entryX=0.5;entryY=0;entryDx=0;entryDy=0;fontSize=18;" parent="CBwO-R-Ii1OIMNnKbIEP-1" source="Air7IKERd5YMMg7ctZau-0" target="Air7IKERd5YMMg7ctZau-2" edge="1">
                    <mxGeometry x="0.5294" y="35" relative="1" as="geometry">
                        <Array as="points">
                            <mxPoint x="425" y="230"/>
                            <mxPoint x="495" y="230"/>
                        </Array>
                        <mxPoint as="offset"/>
                    </mxGeometry>
                </mxCell>
                <mxCell id="Air7IKERd5YMMg7ctZau-16" style="edgeStyle=none;html=1;entryX=0.5;entryY=0;entryDx=0;entryDy=0;fontSize=18;" parent="CBwO-R-Ii1OIMNnKbIEP-1" source="Air7IKERd5YMMg7ctZau-0" target="Air7IKERd5YMMg7ctZau-15" edge="1">
                    <mxGeometry relative="1" as="geometry">
                        <Array as="points">
                            <mxPoint x="116" y="160"/>
                        </Array>
                    </mxGeometry>
                </mxCell>
                <mxCell id="Air7IKERd5YMMg7ctZau-17" value="localhost:4200/myprofile/:id" style="edgeLabel;html=1;align=center;verticalAlign=middle;resizable=0;points=[];fontSize=18;" parent="Air7IKERd5YMMg7ctZau-16" vertex="1" connectable="0">
                    <mxGeometry x="0.5232" y="3" relative="1" as="geometry">
                        <mxPoint x="2" y="57" as="offset"/>
                    </mxGeometry>
                </mxCell>
                <mxCell id="Air7IKERd5YMMg7ctZau-18" value="[USER GUARD]&amp;nbsp; =&amp;gt;&lt;br&gt;{Registered, IsOwner}" style="edgeLabel;html=1;align=center;verticalAlign=middle;resizable=0;points=[];fontSize=18;" parent="Air7IKERd5YMMg7ctZau-16" vertex="1" connectable="0">
                    <mxGeometry x="0.3744" y="-1" relative="1" as="geometry">
                        <mxPoint y="19" as="offset"/>
                    </mxGeometry>
                </mxCell>
                <mxCell id="IxjN-lS2GP4bhqvUeR9_-1" style="edgeStyle=none;html=1;fontSize=18;entryX=0.5;entryY=0;entryDx=0;entryDy=0;" parent="CBwO-R-Ii1OIMNnKbIEP-1" source="Air7IKERd5YMMg7ctZau-0" target="IxjN-lS2GP4bhqvUeR9_-7" edge="1">
                    <mxGeometry relative="1" as="geometry">
                        <mxPoint x="740" y="310" as="targetPoint"/>
                        <Array as="points">
                            <mxPoint x="745" y="160"/>
                        </Array>
                    </mxGeometry>
                </mxCell>
                <mxCell id="IxjN-lS2GP4bhqvUeR9_-2" value="localhost:4200/boards" style="edgeLabel;html=1;align=center;verticalAlign=middle;resizable=0;points=[];fontSize=18;" parent="IxjN-lS2GP4bhqvUeR9_-1" vertex="1" connectable="0">
                    <mxGeometry x="0.774" y="1" relative="1" as="geometry">
                        <mxPoint x="-1" y="6" as="offset"/>
                    </mxGeometry>
                </mxCell>
                <mxCell id="IxjN-lS2GP4bhqvUeR9_-4" style="edgeStyle=none;html=1;entryX=0.5;entryY=0;entryDx=0;entryDy=0;fontSize=18;" parent="CBwO-R-Ii1OIMNnKbIEP-1" source="Air7IKERd5YMMg7ctZau-0" target="IxjN-lS2GP4bhqvUeR9_-3" edge="1">
                    <mxGeometry relative="1" as="geometry">
                        <Array as="points">
                            <mxPoint x="985" y="160"/>
                        </Array>
                    </mxGeometry>
                </mxCell>
                <mxCell id="IxjN-lS2GP4bhqvUeR9_-5" value="localhost:4200/admin" style="edgeLabel;html=1;align=center;verticalAlign=middle;resizable=0;points=[];fontSize=18;" parent="IxjN-lS2GP4bhqvUeR9_-4" vertex="1" connectable="0">
                    <mxGeometry x="0.6349" y="1" relative="1" as="geometry">
                        <mxPoint x="-1" y="80" as="offset"/>
                    </mxGeometry>
                </mxCell>
                <mxCell id="IxjN-lS2GP4bhqvUeR9_-6" value="[ADMIN GUARD]" style="edgeLabel;html=1;align=center;verticalAlign=middle;resizable=0;points=[];fontSize=18;" parent="IxjN-lS2GP4bhqvUeR9_-4" vertex="1" connectable="0">
                    <mxGeometry x="0.6248" y="5" relative="1" as="geometry">
                        <mxPoint y="23" as="offset"/>
                    </mxGeometry>
                </mxCell>
                <mxCell id="Air7IKERd5YMMg7ctZau-0" value="&lt;font style=&quot;font-size: 18px&quot;&gt;Root Router&lt;/font&gt;" style="ellipse;whiteSpace=wrap;html=1;aspect=fixed;fillColor=#6a00ff;fontColor=#ffffff;strokeColor=#3700CC;" parent="CBwO-R-Ii1OIMNnKbIEP-1" vertex="1">
                    <mxGeometry x="385" y="120" width="80" height="80" as="geometry"/>
                </mxCell>
                <mxCell id="Air7IKERd5YMMg7ctZau-9" value="Lading Page" style="rounded=1;whiteSpace=wrap;html=1;fontSize=18;fillColor=#a20025;fontColor=#ffffff;strokeColor=#6F0000;" parent="CBwO-R-Ii1OIMNnKbIEP-1" vertex="1">
                    <mxGeometry x="365" y="20" width="120" height="30" as="geometry"/>
                </mxCell>
                <mxCell id="Air7IKERd5YMMg7ctZau-15" value="Edit Profile Component" style="rounded=1;whiteSpace=wrap;html=1;fontSize=18;fillColor=#a20025;fontColor=#ffffff;strokeColor=#6F0000;" parent="CBwO-R-Ii1OIMNnKbIEP-1" vertex="1">
                    <mxGeometry x="20.5" y="300" width="190" height="40" as="geometry"/>
                </mxCell>
                <mxCell id="IxjN-lS2GP4bhqvUeR9_-11" style="edgeStyle=none;html=1;entryX=0.5;entryY=0;entryDx=0;entryDy=0;fontSize=18;" parent="CBwO-R-Ii1OIMNnKbIEP-1" source="IxjN-lS2GP4bhqvUeR9_-3" target="IxjN-lS2GP4bhqvUeR9_-9" edge="1">
                    <mxGeometry relative="1" as="geometry"/>
                </mxCell>
                <mxCell id="IxjN-lS2GP4bhqvUeR9_-3" value="ADMIN ROOT" style="rounded=0;whiteSpace=wrap;html=1;fontSize=18;fillColor=#60a917;fontColor=#ffffff;strokeColor=#2D7600;" parent="CBwO-R-Ii1OIMNnKbIEP-1" vertex="1">
                    <mxGeometry x="910" y="300" width="150" height="40" as="geometry"/>
                </mxCell>
                <mxCell id="h3U-ndq0wjFjbMxy49mH-43" style="edgeStyle=none;html=1;fontSize=18;strokeColor=#FFFFFF;strokeWidth=1;" parent="CBwO-R-Ii1OIMNnKbIEP-1" source="IxjN-lS2GP4bhqvUeR9_-7" target="h3U-ndq0wjFjbMxy49mH-5" edge="1">
                    <mxGeometry relative="1" as="geometry"/>
                </mxCell>
                <mxCell id="IxjN-lS2GP4bhqvUeR9_-7" value="DASHBOARD ROOT" style="rounded=0;whiteSpace=wrap;html=1;fontSize=18;fillColor=#60a917;fontColor=#ffffff;strokeColor=#2D7600;" parent="CBwO-R-Ii1OIMNnKbIEP-1" vertex="1">
                    <mxGeometry x="645" y="300" width="200" height="40" as="geometry"/>
                </mxCell>
                <mxCell id="yVVyNZsMStvlFi68Byq9-1" style="edgeStyle=none;html=1;fontSize=18;" parent="CBwO-R-Ii1OIMNnKbIEP-1" source="IxjN-lS2GP4bhqvUeR9_-9" target="yVVyNZsMStvlFi68Byq9-0" edge="1">
                    <mxGeometry relative="1" as="geometry"/>
                </mxCell>
                <mxCell id="1nFxGsLl8fb0k1qsUSue-1" value="/admin/home" style="edgeLabel;html=1;align=center;verticalAlign=middle;resizable=0;points=[];fontSize=18;" parent="yVVyNZsMStvlFi68Byq9-1" vertex="1" connectable="0">
                    <mxGeometry x="-0.1937" y="1" relative="1" as="geometry">
                        <mxPoint x="4" y="-93" as="offset"/>
                    </mxGeometry>
                </mxCell>
                <mxCell id="1nFxGsLl8fb0k1qsUSue-2" style="edgeStyle=none;html=1;entryX=0.5;entryY=0;entryDx=0;entryDy=0;fontSize=18;" parent="CBwO-R-Ii1OIMNnKbIEP-1" source="IxjN-lS2GP4bhqvUeR9_-9" target="1nFxGsLl8fb0k1qsUSue-0" edge="1">
                    <mxGeometry relative="1" as="geometry">
                        <Array as="points">
                            <mxPoint x="985" y="480"/>
                            <mxPoint x="1155" y="480"/>
                        </Array>
                    </mxGeometry>
                </mxCell>
                <mxCell id="1nFxGsLl8fb0k1qsUSue-3" value="/admin/users" style="edgeLabel;html=1;align=center;verticalAlign=middle;resizable=0;points=[];fontSize=18;" parent="1nFxGsLl8fb0k1qsUSue-2" vertex="1" connectable="0">
                    <mxGeometry x="0.6527" y="3" relative="1" as="geometry">
                        <mxPoint x="-3" y="12" as="offset"/>
                    </mxGeometry>
                </mxCell>
                <mxCell id="1nFxGsLl8fb0k1qsUSue-6" style="edgeStyle=none;html=1;entryX=0.5;entryY=0;entryDx=0;entryDy=0;fontSize=18;" parent="CBwO-R-Ii1OIMNnKbIEP-1" source="IxjN-lS2GP4bhqvUeR9_-9" target="1nFxGsLl8fb0k1qsUSue-4" edge="1">
                    <mxGeometry relative="1" as="geometry">
                        <Array as="points">
                            <mxPoint x="985" y="480"/>
                            <mxPoint x="1346" y="480"/>
                        </Array>
                    </mxGeometry>
                </mxCell>
                <mxCell id="1nFxGsLl8fb0k1qsUSue-8" value="/admin/reports" style="edgeLabel;html=1;align=center;verticalAlign=middle;resizable=0;points=[];fontSize=18;" parent="1nFxGsLl8fb0k1qsUSue-6" vertex="1" connectable="0">
                    <mxGeometry x="0.8055" relative="1" as="geometry">
                        <mxPoint y="13" as="offset"/>
                    </mxGeometry>
                </mxCell>
                <mxCell id="1nFxGsLl8fb0k1qsUSue-7" style="edgeStyle=none;html=1;entryX=0.5;entryY=0;entryDx=0;entryDy=0;fontSize=18;" parent="CBwO-R-Ii1OIMNnKbIEP-1" source="IxjN-lS2GP4bhqvUeR9_-9" target="1nFxGsLl8fb0k1qsUSue-5" edge="1">
                    <mxGeometry relative="1" as="geometry">
                        <Array as="points">
                            <mxPoint x="985" y="480"/>
                            <mxPoint x="1530" y="480"/>
                        </Array>
                    </mxGeometry>
                </mxCell>
                <mxCell id="1nFxGsLl8fb0k1qsUSue-9" value="/admin/cms" style="edgeLabel;html=1;align=center;verticalAlign=middle;resizable=0;points=[];fontSize=18;" parent="1nFxGsLl8fb0k1qsUSue-7" vertex="1" connectable="0">
                    <mxGeometry x="0.8458" y="2" relative="1" as="geometry">
                        <mxPoint x="-2" y="19" as="offset"/>
                    </mxGeometry>
                </mxCell>
                <mxCell id="1nFxGsLl8fb0k1qsUSue-10" value="?" style="edgeLabel;html=1;align=center;verticalAlign=middle;resizable=0;points=[];fontSize=18;" parent="1nFxGsLl8fb0k1qsUSue-7" vertex="1" connectable="0">
                    <mxGeometry x="0.5037" y="1" relative="1" as="geometry">
                        <mxPoint as="offset"/>
                    </mxGeometry>
                </mxCell>
                <mxCell id="pUIoXwZHK5TtHOGqlMKr-3" style="edgeStyle=none;html=1;entryX=0;entryY=0.5;entryDx=0;entryDy=0;fontSize=18;" parent="CBwO-R-Ii1OIMNnKbIEP-1" source="IxjN-lS2GP4bhqvUeR9_-9" target="pUIoXwZHK5TtHOGqlMKr-2" edge="1">
                    <mxGeometry relative="1" as="geometry"/>
                </mxCell>
                <mxCell id="pUIoXwZHK5TtHOGqlMKr-6" value="/admin/topics" style="edgeLabel;html=1;align=center;verticalAlign=middle;resizable=0;points=[];fontSize=18;" parent="pUIoXwZHK5TtHOGqlMKr-3" vertex="1" connectable="0">
                    <mxGeometry x="-0.043" y="1" relative="1" as="geometry">
                        <mxPoint as="offset"/>
                    </mxGeometry>
                </mxCell>
                <mxCell id="IxjN-lS2GP4bhqvUeR9_-9" value="child router" style="ellipse;whiteSpace=wrap;html=1;aspect=fixed;fontSize=18;fillColor=#60a917;fontColor=#ffffff;strokeColor=#2D7600;" parent="CBwO-R-Ii1OIMNnKbIEP-1" vertex="1">
                    <mxGeometry x="945" y="380" width="80" height="80" as="geometry"/>
                </mxCell>
                <mxCell id="yVVyNZsMStvlFi68Byq9-0" value="Home View" style="rounded=1;whiteSpace=wrap;html=1;fontSize=18;fillColor=#a20025;fontColor=#ffffff;strokeColor=#6F0000;" parent="CBwO-R-Ii1OIMNnKbIEP-1" vertex="1">
                    <mxGeometry x="925" y="540" width="120" height="40" as="geometry"/>
                </mxCell>
                <mxCell id="1nFxGsLl8fb0k1qsUSue-16" style="edgeStyle=none;html=1;exitX=0.5;exitY=1;exitDx=0;exitDy=0;entryX=0.5;entryY=0;entryDx=0;entryDy=0;fontSize=18;" parent="CBwO-R-Ii1OIMNnKbIEP-1" source="1nFxGsLl8fb0k1qsUSue-0" target="1nFxGsLl8fb0k1qsUSue-11" edge="1">
                    <mxGeometry relative="1" as="geometry"/>
                </mxCell>
                <mxCell id="1nFxGsLl8fb0k1qsUSue-0" value="Users View" style="rounded=1;whiteSpace=wrap;html=1;fontSize=18;fillColor=#a20025;fontColor=#ffffff;strokeColor=#6F0000;" parent="CBwO-R-Ii1OIMNnKbIEP-1" vertex="1">
                    <mxGeometry x="1100" y="540" width="110" height="40" as="geometry"/>
                </mxCell>
                <mxCell id="1nFxGsLl8fb0k1qsUSue-24" style="edgeStyle=none;html=1;fontSize=18;" parent="CBwO-R-Ii1OIMNnKbIEP-1" source="1nFxGsLl8fb0k1qsUSue-4" target="1nFxGsLl8fb0k1qsUSue-12" edge="1">
                    <mxGeometry relative="1" as="geometry"/>
                </mxCell>
                <mxCell id="1nFxGsLl8fb0k1qsUSue-4" value="Reports View" style="rounded=1;whiteSpace=wrap;html=1;fontSize=18;fillColor=#a20025;fontColor=#ffffff;strokeColor=#6F0000;" parent="CBwO-R-Ii1OIMNnKbIEP-1" vertex="1">
                    <mxGeometry x="1283.75" y="540" width="125" height="40" as="geometry"/>
                </mxCell>
                <mxCell id="1nFxGsLl8fb0k1qsUSue-5" value="CMS View" style="rounded=1;whiteSpace=wrap;html=1;fontSize=18;fillColor=#647687;fontColor=#ffffff;strokeColor=#314354;" parent="CBwO-R-Ii1OIMNnKbIEP-1" vertex="1">
                    <mxGeometry x="1470" y="540" width="120" height="40" as="geometry"/>
                </mxCell>
                <mxCell id="1nFxGsLl8fb0k1qsUSue-17" style="edgeStyle=none;html=1;entryX=0.5;entryY=0;entryDx=0;entryDy=0;fontSize=18;" parent="CBwO-R-Ii1OIMNnKbIEP-1" source="1nFxGsLl8fb0k1qsUSue-11" target="1nFxGsLl8fb0k1qsUSue-13" edge="1">
                    <mxGeometry relative="1" as="geometry"/>
                </mxCell>
                <mxCell id="1nFxGsLl8fb0k1qsUSue-18" style="edgeStyle=none;html=1;entryX=0.5;entryY=0;entryDx=0;entryDy=0;fontSize=18;" parent="CBwO-R-Ii1OIMNnKbIEP-1" source="1nFxGsLl8fb0k1qsUSue-11" target="1nFxGsLl8fb0k1qsUSue-14" edge="1">
                    <mxGeometry relative="1" as="geometry"/>
                </mxCell>
                <mxCell id="1nFxGsLl8fb0k1qsUSue-19" style="edgeStyle=none;html=1;fontSize=18;" parent="CBwO-R-Ii1OIMNnKbIEP-1" source="1nFxGsLl8fb0k1qsUSue-11" target="1nFxGsLl8fb0k1qsUSue-15" edge="1">
                    <mxGeometry relative="1" as="geometry"/>
                </mxCell>
                <mxCell id="1nFxGsLl8fb0k1qsUSue-11" value="users view list" style="rounded=0;whiteSpace=wrap;html=1;fontSize=18;fillColor=#6a00ff;fontColor=#ffffff;strokeColor=#3700CC;" parent="CBwO-R-Ii1OIMNnKbIEP-1" vertex="1">
                    <mxGeometry x="1092.5" y="620" width="125" height="30" as="geometry"/>
                </mxCell>
                <mxCell id="1nFxGsLl8fb0k1qsUSue-25" style="edgeStyle=none;html=1;entryX=0;entryY=0.5;entryDx=0;entryDy=0;fontSize=18;" parent="CBwO-R-Ii1OIMNnKbIEP-1" source="1nFxGsLl8fb0k1qsUSue-12" target="1nFxGsLl8fb0k1qsUSue-20" edge="1">
                    <mxGeometry relative="1" as="geometry">
                        <Array as="points">
                            <mxPoint x="1346" y="705"/>
                        </Array>
                    </mxGeometry>
                </mxCell>
                <mxCell id="1nFxGsLl8fb0k1qsUSue-26" style="edgeStyle=none;html=1;entryX=0;entryY=0.5;entryDx=0;entryDy=0;fontSize=18;" parent="CBwO-R-Ii1OIMNnKbIEP-1" source="1nFxGsLl8fb0k1qsUSue-12" target="1nFxGsLl8fb0k1qsUSue-21" edge="1">
                    <mxGeometry relative="1" as="geometry">
                        <Array as="points">
                            <mxPoint x="1346" y="765"/>
                        </Array>
                    </mxGeometry>
                </mxCell>
                <mxCell id="1nFxGsLl8fb0k1qsUSue-27" style="edgeStyle=none;html=1;entryX=0;entryY=0.5;entryDx=0;entryDy=0;fontSize=18;" parent="CBwO-R-Ii1OIMNnKbIEP-1" source="1nFxGsLl8fb0k1qsUSue-12" target="1nFxGsLl8fb0k1qsUSue-22" edge="1">
                    <mxGeometry relative="1" as="geometry">
                        <Array as="points">
                            <mxPoint x="1346" y="815"/>
                        </Array>
                    </mxGeometry>
                </mxCell>
                <mxCell id="1nFxGsLl8fb0k1qsUSue-29" style="edgeStyle=none;html=1;fontSize=18;entryX=0;entryY=0.5;entryDx=0;entryDy=0;" parent="CBwO-R-Ii1OIMNnKbIEP-1" source="1nFxGsLl8fb0k1qsUSue-12" target="1nFxGsLl8fb0k1qsUSue-23" edge="1">
                    <mxGeometry relative="1" as="geometry">
                        <mxPoint x="1346.25" y="870" as="targetPoint"/>
                        <Array as="points">
                            <mxPoint x="1346" y="865"/>
                        </Array>
                    </mxGeometry>
                </mxCell>
                <mxCell id="1nFxGsLl8fb0k1qsUSue-12" value="reports view list" style="rounded=0;whiteSpace=wrap;html=1;fontSize=18;fillColor=#6a00ff;fontColor=#ffffff;strokeColor=#3700CC;" parent="CBwO-R-Ii1OIMNnKbIEP-1" vertex="1">
                    <mxGeometry x="1275" y="620" width="142.5" height="30" as="geometry"/>
                </mxCell>
                <mxCell id="1nFxGsLl8fb0k1qsUSue-13" value="search action" style="rounded=0;whiteSpace=wrap;html=1;fontSize=18;fillColor=#6a00ff;fontColor=#ffffff;strokeColor=#3700CC;" parent="CBwO-R-Ii1OIMNnKbIEP-1" vertex="1">
                    <mxGeometry x="1020" y="690" width="120" height="30" as="geometry"/>
                </mxCell>
                <mxCell id="1nFxGsLl8fb0k1qsUSue-14" value="disable action" style="rounded=0;whiteSpace=wrap;html=1;fontSize=18;fillColor=#6a00ff;fontColor=#ffffff;strokeColor=#3700CC;" parent="CBwO-R-Ii1OIMNnKbIEP-1" vertex="1">
                    <mxGeometry x="1170" y="690" width="120" height="30" as="geometry"/>
                </mxCell>
                <mxCell id="1nFxGsLl8fb0k1qsUSue-15" value="config dialog action" style="rounded=0;whiteSpace=wrap;html=1;fontSize=18;fillColor=#6a00ff;fontColor=#ffffff;strokeColor=#3700CC;" parent="CBwO-R-Ii1OIMNnKbIEP-1" vertex="1">
                    <mxGeometry x="1095" y="730" width="120" height="50" as="geometry"/>
                </mxCell>
                <mxCell id="1nFxGsLl8fb0k1qsUSue-20" value="delete dialog action" style="rounded=0;whiteSpace=wrap;html=1;fontSize=18;fillColor=#6a00ff;fontColor=#ffffff;strokeColor=#3700CC;" parent="CBwO-R-Ii1OIMNnKbIEP-1" vertex="1">
                    <mxGeometry x="1390" y="680" width="120" height="50" as="geometry"/>
                </mxCell>
                <mxCell id="1nFxGsLl8fb0k1qsUSue-21" value="take action dialog action" style="rounded=0;whiteSpace=wrap;html=1;fontSize=18;fillColor=#6a00ff;fontColor=#ffffff;strokeColor=#3700CC;" parent="CBwO-R-Ii1OIMNnKbIEP-1" vertex="1">
                    <mxGeometry x="1390" y="740" width="120" height="50" as="geometry"/>
                </mxCell>
                <mxCell id="1nFxGsLl8fb0k1qsUSue-22" value="search action" style="rounded=0;whiteSpace=wrap;html=1;fontSize=18;fillColor=#6a00ff;fontColor=#ffffff;strokeColor=#3700CC;" parent="CBwO-R-Ii1OIMNnKbIEP-1" vertex="1">
                    <mxGeometry x="1390" y="800" width="120" height="30" as="geometry"/>
                </mxCell>
                <mxCell id="1nFxGsLl8fb0k1qsUSue-23" value="create dialog action" style="rounded=0;whiteSpace=wrap;html=1;fontSize=18;fillColor=#6a00ff;fontColor=#ffffff;strokeColor=#3700CC;" parent="CBwO-R-Ii1OIMNnKbIEP-1" vertex="1">
                    <mxGeometry x="1390" y="840" width="120" height="50" as="geometry"/>
                </mxCell>
                <mxCell id="pUIoXwZHK5TtHOGqlMKr-5" style="edgeStyle=none;html=1;entryX=0.5;entryY=0;entryDx=0;entryDy=0;fontSize=18;" parent="CBwO-R-Ii1OIMNnKbIEP-1" source="pUIoXwZHK5TtHOGqlMKr-2" target="pUIoXwZHK5TtHOGqlMKr-4" edge="1">
                    <mxGeometry relative="1" as="geometry"/>
                </mxCell>
                <mxCell id="pUIoXwZHK5TtHOGqlMKr-2" value="TOPICS ROOT" style="rounded=0;whiteSpace=wrap;html=1;fontSize=18;fillColor=#60a917;fontColor=#ffffff;strokeColor=#2D7600;" parent="CBwO-R-Ii1OIMNnKbIEP-1" vertex="1">
                    <mxGeometry x="1640" y="400" width="151" height="40" as="geometry"/>
                </mxCell>
                <mxCell id="pUIoXwZHK5TtHOGqlMKr-52" style="edgeStyle=none;html=1;entryX=0;entryY=0.5;entryDx=0;entryDy=0;fontSize=14;" parent="CBwO-R-Ii1OIMNnKbIEP-1" source="pUIoXwZHK5TtHOGqlMKr-4" target="pUIoXwZHK5TtHOGqlMKr-7" edge="1">
                    <mxGeometry relative="1" as="geometry">
                        <Array as="points">
                            <mxPoint x="1716" y="650"/>
                        </Array>
                    </mxGeometry>
                </mxCell>
                <mxCell id="pUIoXwZHK5TtHOGqlMKr-53" style="edgeStyle=none;html=1;entryX=0;entryY=0.5;entryDx=0;entryDy=0;fontSize=14;" parent="CBwO-R-Ii1OIMNnKbIEP-1" source="pUIoXwZHK5TtHOGqlMKr-4" target="pUIoXwZHK5TtHOGqlMKr-8" edge="1">
                    <mxGeometry relative="1" as="geometry">
                        <Array as="points">
                            <mxPoint x="1716" y="890"/>
                        </Array>
                    </mxGeometry>
                </mxCell>
                <mxCell id="pUIoXwZHK5TtHOGqlMKr-54" style="edgeStyle=none;html=1;entryX=0;entryY=0.5;entryDx=0;entryDy=0;fontSize=14;" parent="CBwO-R-Ii1OIMNnKbIEP-1" source="pUIoXwZHK5TtHOGqlMKr-4" target="pUIoXwZHK5TtHOGqlMKr-9" edge="1">
                    <mxGeometry relative="1" as="geometry">
                        <Array as="points">
                            <mxPoint x="1716" y="1150"/>
                        </Array>
                    </mxGeometry>
                </mxCell>
                <mxCell id="pUIoXwZHK5TtHOGqlMKr-4" value="child router" style="ellipse;whiteSpace=wrap;html=1;aspect=fixed;fontSize=18;fillColor=#60a917;fontColor=#ffffff;strokeColor=#2D7600;" parent="CBwO-R-Ii1OIMNnKbIEP-1" vertex="1">
                    <mxGeometry x="1675.5" y="500" width="80" height="80" as="geometry"/>
                </mxCell>
                <mxCell id="pUIoXwZHK5TtHOGqlMKr-14" style="edgeStyle=none;html=1;entryX=0;entryY=0.5;entryDx=0;entryDy=0;fontSize=14;" parent="CBwO-R-Ii1OIMNnKbIEP-1" source="pUIoXwZHK5TtHOGqlMKr-7" target="pUIoXwZHK5TtHOGqlMKr-11" edge="1">
                    <mxGeometry relative="1" as="geometry"/>
                </mxCell>
                <mxCell id="pUIoXwZHK5TtHOGqlMKr-55" value="&lt;font style=&quot;font-size: 18px&quot;&gt;/boards&lt;/font&gt;" style="edgeLabel;html=1;align=center;verticalAlign=middle;resizable=0;points=[];fontSize=14;" parent="pUIoXwZHK5TtHOGqlMKr-14" vertex="1" connectable="0">
                    <mxGeometry x="-0.25" y="-1" relative="1" as="geometry">
                        <mxPoint x="9" y="-1" as="offset"/>
                    </mxGeometry>
                </mxCell>
                <mxCell id="pUIoXwZHK5TtHOGqlMKr-7" value="Boards Root View" style="rounded=1;whiteSpace=wrap;html=1;fontSize=18;fillColor=#a20025;fontColor=#ffffff;strokeColor=#6F0000;" parent="CBwO-R-Ii1OIMNnKbIEP-1" vertex="1">
                    <mxGeometry x="1740" y="630" width="160" height="40" as="geometry"/>
                </mxCell>
                <mxCell id="pUIoXwZHK5TtHOGqlMKr-39" style="edgeStyle=none;html=1;exitX=1;exitY=0.5;exitDx=0;exitDy=0;entryX=0;entryY=0.5;entryDx=0;entryDy=0;fontSize=14;" parent="CBwO-R-Ii1OIMNnKbIEP-1" source="pUIoXwZHK5TtHOGqlMKr-8" target="pUIoXwZHK5TtHOGqlMKr-30" edge="1">
                    <mxGeometry relative="1" as="geometry"/>
                </mxCell>
                <mxCell id="pUIoXwZHK5TtHOGqlMKr-56" value="&lt;font style=&quot;font-size: 18px&quot;&gt;/channels&lt;/font&gt;" style="edgeLabel;html=1;align=center;verticalAlign=middle;resizable=0;points=[];fontSize=14;" parent="pUIoXwZHK5TtHOGqlMKr-39" vertex="1" connectable="0">
                    <mxGeometry x="-0.6" y="-1" relative="1" as="geometry">
                        <mxPoint x="20" y="-1" as="offset"/>
                    </mxGeometry>
                </mxCell>
                <mxCell id="pUIoXwZHK5TtHOGqlMKr-8" value="Channels Root View" style="rounded=1;whiteSpace=wrap;html=1;fontSize=18;fillColor=#a20025;fontColor=#ffffff;strokeColor=#6F0000;" parent="CBwO-R-Ii1OIMNnKbIEP-1" vertex="1">
                    <mxGeometry x="1740" y="870" width="170" height="40" as="geometry"/>
                </mxCell>
                <mxCell id="pUIoXwZHK5TtHOGqlMKr-45" style="edgeStyle=none;html=1;entryX=0;entryY=0.5;entryDx=0;entryDy=0;fontSize=14;" parent="CBwO-R-Ii1OIMNnKbIEP-1" source="pUIoXwZHK5TtHOGqlMKr-9" target="pUIoXwZHK5TtHOGqlMKr-44" edge="1">
                    <mxGeometry relative="1" as="geometry"/>
                </mxCell>
                <mxCell id="pUIoXwZHK5TtHOGqlMKr-57" value="&lt;font style=&quot;font-size: 18px&quot;&gt;/articles&lt;/font&gt;" style="edgeLabel;html=1;align=center;verticalAlign=middle;resizable=0;points=[];fontSize=14;" parent="pUIoXwZHK5TtHOGqlMKr-45" vertex="1" connectable="0">
                    <mxGeometry x="-0.5591" y="2" relative="1" as="geometry">
                        <mxPoint x="26" y="2" as="offset"/>
                    </mxGeometry>
                </mxCell>
                <mxCell id="pUIoXwZHK5TtHOGqlMKr-9" value="Articles Root View" style="rounded=1;whiteSpace=wrap;html=1;fontSize=18;fillColor=#a20025;fontColor=#ffffff;strokeColor=#6F0000;" parent="CBwO-R-Ii1OIMNnKbIEP-1" vertex="1">
                    <mxGeometry x="1745.5" y="1130" width="154.5" height="40" as="geometry"/>
                </mxCell>
                <mxCell id="pUIoXwZHK5TtHOGqlMKr-15" style="edgeStyle=none;html=1;entryX=0;entryY=0.5;entryDx=0;entryDy=0;fontSize=14;" parent="CBwO-R-Ii1OIMNnKbIEP-1" source="pUIoXwZHK5TtHOGqlMKr-11" target="pUIoXwZHK5TtHOGqlMKr-13" edge="1">
                    <mxGeometry relative="1" as="geometry"/>
                </mxCell>
                <mxCell id="pUIoXwZHK5TtHOGqlMKr-16" style="edgeStyle=none;html=1;entryX=0;entryY=0.5;entryDx=0;entryDy=0;fontSize=14;" parent="CBwO-R-Ii1OIMNnKbIEP-1" source="pUIoXwZHK5TtHOGqlMKr-11" target="pUIoXwZHK5TtHOGqlMKr-12" edge="1">
                    <mxGeometry relative="1" as="geometry">
                        <Array as="points">
                            <mxPoint x="2080" y="595"/>
                        </Array>
                    </mxGeometry>
                </mxCell>
                <mxCell id="pUIoXwZHK5TtHOGqlMKr-21" style="edgeStyle=none;html=1;fontSize=14;" parent="CBwO-R-Ii1OIMNnKbIEP-1" source="pUIoXwZHK5TtHOGqlMKr-11" target="pUIoXwZHK5TtHOGqlMKr-20" edge="1">
                    <mxGeometry relative="1" as="geometry"/>
                </mxCell>
                <mxCell id="pUIoXwZHK5TtHOGqlMKr-11" value="boards view list" style="rounded=0;whiteSpace=wrap;html=1;fontSize=18;fillColor=#6a00ff;fontColor=#ffffff;strokeColor=#3700CC;" parent="CBwO-R-Ii1OIMNnKbIEP-1" vertex="1">
                    <mxGeometry x="2010" y="635" width="140" height="30" as="geometry"/>
                </mxCell>
                <mxCell id="pUIoXwZHK5TtHOGqlMKr-12" value="search action" style="rounded=0;whiteSpace=wrap;html=1;fontSize=18;fillColor=#6a00ff;fontColor=#ffffff;strokeColor=#3700CC;" parent="CBwO-R-Ii1OIMNnKbIEP-1" vertex="1">
                    <mxGeometry x="2185" y="580" width="120" height="30" as="geometry"/>
                </mxCell>
                <mxCell id="pUIoXwZHK5TtHOGqlMKr-26" style="edgeStyle=none;html=1;entryX=0.75;entryY=0;entryDx=0;entryDy=0;fontSize=14;" parent="CBwO-R-Ii1OIMNnKbIEP-1" source="pUIoXwZHK5TtHOGqlMKr-13" target="pUIoXwZHK5TtHOGqlMKr-24" edge="1">
                    <mxGeometry relative="1" as="geometry">
                        <Array as="points">
                            <mxPoint x="2473" y="650"/>
                        </Array>
                    </mxGeometry>
                </mxCell>
                <mxCell id="pUIoXwZHK5TtHOGqlMKr-13" value="create button action" style="rounded=0;whiteSpace=wrap;html=1;fontSize=18;fillColor=#6a00ff;fontColor=#ffffff;strokeColor=#3700CC;" parent="CBwO-R-Ii1OIMNnKbIEP-1" vertex="1">
                    <mxGeometry x="2185" y="622.5" width="120" height="55" as="geometry"/>
                </mxCell>
                <mxCell id="pUIoXwZHK5TtHOGqlMKr-23" style="edgeStyle=none;html=1;entryX=0;entryY=0.5;entryDx=0;entryDy=0;fontSize=14;" parent="CBwO-R-Ii1OIMNnKbIEP-1" source="pUIoXwZHK5TtHOGqlMKr-20" target="pUIoXwZHK5TtHOGqlMKr-22" edge="1">
                    <mxGeometry relative="1" as="geometry">
                        <Array as="points">
                            <mxPoint x="2080" y="780"/>
                        </Array>
                    </mxGeometry>
                </mxCell>
                <mxCell id="pUIoXwZHK5TtHOGqlMKr-41" value="/update/:id" style="edgeLabel;html=1;align=center;verticalAlign=middle;resizable=0;points=[];fontSize=14;" parent="pUIoXwZHK5TtHOGqlMKr-23" vertex="1" connectable="0">
                    <mxGeometry x="-0.0132" y="-3" relative="1" as="geometry">
                        <mxPoint x="7" y="-3" as="offset"/>
                    </mxGeometry>
                </mxCell>
                <mxCell id="pUIoXwZHK5TtHOGqlMKr-25" style="edgeStyle=none;html=1;entryX=0;entryY=0.5;entryDx=0;entryDy=0;fontSize=14;" parent="CBwO-R-Ii1OIMNnKbIEP-1" source="pUIoXwZHK5TtHOGqlMKr-20" target="pUIoXwZHK5TtHOGqlMKr-24" edge="1">
                    <mxGeometry relative="1" as="geometry"/>
                </mxCell>
                <mxCell id="pUIoXwZHK5TtHOGqlMKr-40" value="/create" style="edgeLabel;html=1;align=center;verticalAlign=middle;resizable=0;points=[];fontSize=14;" parent="pUIoXwZHK5TtHOGqlMKr-25" vertex="1" connectable="0">
                    <mxGeometry x="-0.2461" relative="1" as="geometry">
                        <mxPoint x="1" as="offset"/>
                    </mxGeometry>
                </mxCell>
                <mxCell id="pUIoXwZHK5TtHOGqlMKr-20" value="&lt;font style=&quot;font-size: 14px&quot;&gt;child (nested) router&lt;/font&gt;" style="ellipse;whiteSpace=wrap;html=1;aspect=fixed;fontSize=18;fillColor=#60a917;fontColor=#ffffff;strokeColor=#2D7600;" parent="CBwO-R-Ii1OIMNnKbIEP-1" vertex="1">
                    <mxGeometry x="2045" y="690" width="70" height="70" as="geometry"/>
                </mxCell>
                <mxCell id="pUIoXwZHK5TtHOGqlMKr-22" value="Update Board Component" style="rounded=1;whiteSpace=wrap;html=1;fontSize=18;fillColor=#a20025;fontColor=#ffffff;strokeColor=#6F0000;" parent="CBwO-R-Ii1OIMNnKbIEP-1" vertex="1">
                    <mxGeometry x="2300" y="760" width="230" height="40" as="geometry"/>
                </mxCell>
                <mxCell id="pUIoXwZHK5TtHOGqlMKr-24" value="Create Board Component" style="rounded=1;whiteSpace=wrap;html=1;fontSize=18;fillColor=#a20025;fontColor=#ffffff;strokeColor=#6F0000;" parent="CBwO-R-Ii1OIMNnKbIEP-1" vertex="1">
                    <mxGeometry x="2300" y="705" width="230" height="40" as="geometry"/>
                </mxCell>
                <mxCell id="pUIoXwZHK5TtHOGqlMKr-27" style="edgeStyle=none;html=1;entryX=0;entryY=0.5;entryDx=0;entryDy=0;fontSize=14;" parent="CBwO-R-Ii1OIMNnKbIEP-1" source="pUIoXwZHK5TtHOGqlMKr-30" target="pUIoXwZHK5TtHOGqlMKr-33" edge="1">
                    <mxGeometry relative="1" as="geometry"/>
                </mxCell>
                <mxCell id="pUIoXwZHK5TtHOGqlMKr-28" style="edgeStyle=none;html=1;entryX=0;entryY=0.5;entryDx=0;entryDy=0;fontSize=14;" parent="CBwO-R-Ii1OIMNnKbIEP-1" source="pUIoXwZHK5TtHOGqlMKr-30" target="pUIoXwZHK5TtHOGqlMKr-31" edge="1">
                    <mxGeometry relative="1" as="geometry">
                        <Array as="points">
                            <mxPoint x="2085" y="835"/>
                        </Array>
                    </mxGeometry>
                </mxCell>
                <mxCell id="pUIoXwZHK5TtHOGqlMKr-29" style="edgeStyle=none;html=1;fontSize=14;" parent="CBwO-R-Ii1OIMNnKbIEP-1" source="pUIoXwZHK5TtHOGqlMKr-30" target="pUIoXwZHK5TtHOGqlMKr-36" edge="1">
                    <mxGeometry relative="1" as="geometry"/>
                </mxCell>
                <mxCell id="pUIoXwZHK5TtHOGqlMKr-30" value="channels view list" style="rounded=0;whiteSpace=wrap;html=1;fontSize=18;fillColor=#6a00ff;fontColor=#ffffff;strokeColor=#3700CC;" parent="CBwO-R-Ii1OIMNnKbIEP-1" vertex="1">
                    <mxGeometry x="2010" y="875" width="150" height="30" as="geometry"/>
                </mxCell>
                <mxCell id="pUIoXwZHK5TtHOGqlMKr-31" value="search action" style="rounded=0;whiteSpace=wrap;html=1;fontSize=18;fillColor=#6a00ff;fontColor=#ffffff;strokeColor=#3700CC;" parent="CBwO-R-Ii1OIMNnKbIEP-1" vertex="1">
                    <mxGeometry x="2185" y="820" width="120" height="30" as="geometry"/>
                </mxCell>
                <mxCell id="pUIoXwZHK5TtHOGqlMKr-32" style="edgeStyle=none;html=1;entryX=0.75;entryY=0;entryDx=0;entryDy=0;fontSize=14;" parent="CBwO-R-Ii1OIMNnKbIEP-1" source="pUIoXwZHK5TtHOGqlMKr-33" target="pUIoXwZHK5TtHOGqlMKr-38" edge="1">
                    <mxGeometry relative="1" as="geometry">
                        <Array as="points">
                            <mxPoint x="2480" y="890"/>
                        </Array>
                    </mxGeometry>
                </mxCell>
                <mxCell id="pUIoXwZHK5TtHOGqlMKr-33" value="create button action" style="rounded=0;whiteSpace=wrap;html=1;fontSize=18;fillColor=#6a00ff;fontColor=#ffffff;strokeColor=#3700CC;" parent="CBwO-R-Ii1OIMNnKbIEP-1" vertex="1">
                    <mxGeometry x="2185" y="862.5" width="120" height="55" as="geometry"/>
                </mxCell>
                <mxCell id="pUIoXwZHK5TtHOGqlMKr-34" style="edgeStyle=none;html=1;entryX=0;entryY=0.5;entryDx=0;entryDy=0;fontSize=14;" parent="CBwO-R-Ii1OIMNnKbIEP-1" source="pUIoXwZHK5TtHOGqlMKr-36" target="pUIoXwZHK5TtHOGqlMKr-37" edge="1">
                    <mxGeometry relative="1" as="geometry">
                        <Array as="points">
                            <mxPoint x="2085" y="1020"/>
                        </Array>
                    </mxGeometry>
                </mxCell>
                <mxCell id="pUIoXwZHK5TtHOGqlMKr-43" value="/update/:id" style="edgeLabel;html=1;align=center;verticalAlign=middle;resizable=0;points=[];fontSize=14;" parent="pUIoXwZHK5TtHOGqlMKr-34" vertex="1" connectable="0">
                    <mxGeometry x="-0.0258" y="-3" relative="1" as="geometry">
                        <mxPoint x="5" y="-3" as="offset"/>
                    </mxGeometry>
                </mxCell>
                <mxCell id="pUIoXwZHK5TtHOGqlMKr-35" style="edgeStyle=none;html=1;entryX=0;entryY=0.5;entryDx=0;entryDy=0;fontSize=14;" parent="CBwO-R-Ii1OIMNnKbIEP-1" source="pUIoXwZHK5TtHOGqlMKr-36" target="pUIoXwZHK5TtHOGqlMKr-38" edge="1">
                    <mxGeometry relative="1" as="geometry"/>
                </mxCell>
                <mxCell id="pUIoXwZHK5TtHOGqlMKr-42" value="/create" style="edgeLabel;html=1;align=center;verticalAlign=middle;resizable=0;points=[];fontSize=14;" parent="pUIoXwZHK5TtHOGqlMKr-35" vertex="1" connectable="0">
                    <mxGeometry x="-0.2339" y="-3" relative="1" as="geometry">
                        <mxPoint x="-4" y="-3" as="offset"/>
                    </mxGeometry>
                </mxCell>
                <mxCell id="pUIoXwZHK5TtHOGqlMKr-36" value="&lt;font style=&quot;font-size: 14px&quot;&gt;child (nested) router&lt;/font&gt;" style="ellipse;whiteSpace=wrap;html=1;aspect=fixed;fontSize=18;fillColor=#60a917;fontColor=#ffffff;strokeColor=#2D7600;" parent="CBwO-R-Ii1OIMNnKbIEP-1" vertex="1">
                    <mxGeometry x="2050" y="930" width="70" height="70" as="geometry"/>
                </mxCell>
                <mxCell id="pUIoXwZHK5TtHOGqlMKr-37" value="Update Channel Component" style="rounded=1;whiteSpace=wrap;html=1;fontSize=18;fillColor=#a20025;fontColor=#ffffff;strokeColor=#6F0000;" parent="CBwO-R-Ii1OIMNnKbIEP-1" vertex="1">
                    <mxGeometry x="2300" y="1000" width="240" height="40" as="geometry"/>
                </mxCell>
                <mxCell id="pUIoXwZHK5TtHOGqlMKr-38" value="Create Channel Component" style="rounded=1;whiteSpace=wrap;html=1;fontSize=18;fillColor=#a20025;fontColor=#ffffff;strokeColor=#6F0000;" parent="CBwO-R-Ii1OIMNnKbIEP-1" vertex="1">
                    <mxGeometry x="2300" y="945" width="240" height="40" as="geometry"/>
                </mxCell>
                <mxCell id="pUIoXwZHK5TtHOGqlMKr-47" style="edgeStyle=none;html=1;entryX=0.5;entryY=0;entryDx=0;entryDy=0;fontSize=14;" parent="CBwO-R-Ii1OIMNnKbIEP-1" source="pUIoXwZHK5TtHOGqlMKr-44" target="pUIoXwZHK5TtHOGqlMKr-46" edge="1">
                    <mxGeometry relative="1" as="geometry"/>
                </mxCell>
                <mxCell id="pUIoXwZHK5TtHOGqlMKr-44" value="articles view list" style="rounded=0;whiteSpace=wrap;html=1;fontSize=18;fillColor=#6a00ff;fontColor=#ffffff;strokeColor=#3700CC;" parent="CBwO-R-Ii1OIMNnKbIEP-1" vertex="1">
                    <mxGeometry x="2010" y="1135" width="150" height="30" as="geometry"/>
                </mxCell>
                <mxCell id="pUIoXwZHK5TtHOGqlMKr-49" style="edgeStyle=none;html=1;entryX=0;entryY=0.5;entryDx=0;entryDy=0;fontSize=14;" parent="CBwO-R-Ii1OIMNnKbIEP-1" source="pUIoXwZHK5TtHOGqlMKr-46" target="pUIoXwZHK5TtHOGqlMKr-48" edge="1">
                    <mxGeometry relative="1" as="geometry"/>
                </mxCell>
                <mxCell id="pUIoXwZHK5TtHOGqlMKr-50" value="/article/:id" style="edgeLabel;html=1;align=center;verticalAlign=middle;resizable=0;points=[];fontSize=14;" parent="pUIoXwZHK5TtHOGqlMKr-49" vertex="1" connectable="0">
                    <mxGeometry x="-0.2035" y="1" relative="1" as="geometry">
                        <mxPoint y="1" as="offset"/>
                    </mxGeometry>
                </mxCell>
                <mxCell id="pUIoXwZHK5TtHOGqlMKr-46" value="&lt;font style=&quot;font-size: 14px&quot;&gt;child (nested) router&lt;/font&gt;" style="ellipse;whiteSpace=wrap;html=1;aspect=fixed;fontSize=18;fillColor=#60a917;fontColor=#ffffff;strokeColor=#2D7600;" parent="CBwO-R-Ii1OIMNnKbIEP-1" vertex="1">
                    <mxGeometry x="2050" y="1200" width="70" height="70" as="geometry"/>
                </mxCell>
                <mxCell id="pUIoXwZHK5TtHOGqlMKr-48" value="Article View Component" style="rounded=1;whiteSpace=wrap;html=1;fontSize=18;fillColor=#a20025;fontColor=#ffffff;strokeColor=#6F0000;" parent="CBwO-R-Ii1OIMNnKbIEP-1" vertex="1">
                    <mxGeometry x="2300" y="1215" width="210" height="40" as="geometry"/>
                </mxCell>
                <mxCell id="eJzoHZUbtOtjYsPxJFQZ-10" style="edgeStyle=none;html=1;exitX=0.5;exitY=1;exitDx=0;exitDy=0;" parent="CBwO-R-Ii1OIMNnKbIEP-1" edge="1">
                    <mxGeometry relative="1" as="geometry">
                        <mxPoint x="650" y="1630.0000000000002" as="targetPoint"/>
                        <mxPoint x="650" y="1490.0000000000002" as="sourcePoint"/>
                    </mxGeometry>
                </mxCell>
                <mxCell id="eJzoHZUbtOtjYsPxJFQZ-12" style="edgeStyle=none;html=1;exitX=0;exitY=0.5;exitDx=0;exitDy=0;entryX=0.5;entryY=0;entryDx=0;entryDy=0;" parent="CBwO-R-Ii1OIMNnKbIEP-1" target="eJzoHZUbtOtjYsPxJFQZ-20" edge="1">
                    <mxGeometry relative="1" as="geometry">
                        <mxPoint x="610" y="1670.0000000000002" as="sourcePoint"/>
                        <Array as="points">
                            <mxPoint x="360" y="1670"/>
                        </Array>
                    </mxGeometry>
                </mxCell>
                <mxCell id="eJzoHZUbtOtjYsPxJFQZ-13" value="/channels" style="edgeLabel;html=1;align=center;verticalAlign=middle;resizable=0;points=[];" parent="eJzoHZUbtOtjYsPxJFQZ-12" vertex="1" connectable="0">
                    <mxGeometry x="-0.1626" y="2" relative="1" as="geometry">
                        <mxPoint as="offset"/>
                    </mxGeometry>
                </mxCell>
                <mxCell id="eJzoHZUbtOtjYsPxJFQZ-14" style="edgeStyle=none;html=1;exitX=1;exitY=0.5;exitDx=0;exitDy=0;entryX=0.5;entryY=0;entryDx=0;entryDy=0;" parent="CBwO-R-Ii1OIMNnKbIEP-1" target="eJzoHZUbtOtjYsPxJFQZ-25" edge="1">
                    <mxGeometry relative="1" as="geometry">
                        <mxPoint x="690" y="1670.0000000000002" as="sourcePoint"/>
                        <Array as="points">
                            <mxPoint x="930" y="1670"/>
                        </Array>
                    </mxGeometry>
                </mxCell>
                <mxCell id="eJzoHZUbtOtjYsPxJFQZ-15" value="/articles" style="edgeLabel;html=1;align=center;verticalAlign=middle;resizable=0;points=[];" parent="eJzoHZUbtOtjYsPxJFQZ-14" vertex="1" connectable="0">
                    <mxGeometry x="-0.1356" y="2" relative="1" as="geometry">
                        <mxPoint as="offset"/>
                    </mxGeometry>
                </mxCell>
                <mxCell id="eJzoHZUbtOtjYsPxJFQZ-17" value="" style="edgeStyle=none;html=1;" parent="CBwO-R-Ii1OIMNnKbIEP-1" source="eJzoHZUbtOtjYsPxJFQZ-20" target="eJzoHZUbtOtjYsPxJFQZ-28" edge="1">
                    <mxGeometry relative="1" as="geometry"/>
                </mxCell>
                <mxCell id="eJzoHZUbtOtjYsPxJFQZ-18" value="" style="edgeStyle=none;html=1;" parent="CBwO-R-Ii1OIMNnKbIEP-1" source="eJzoHZUbtOtjYsPxJFQZ-20" target="eJzoHZUbtOtjYsPxJFQZ-29" edge="1">
                    <mxGeometry relative="1" as="geometry"/>
                </mxCell>
                <mxCell id="eJzoHZUbtOtjYsPxJFQZ-19" value="/channel-detail/channel:Id" style="edgeLabel;html=1;align=center;verticalAlign=middle;resizable=0;points=[];" parent="eJzoHZUbtOtjYsPxJFQZ-18" vertex="1" connectable="0">
                    <mxGeometry x="-0.1836" y="-2" relative="1" as="geometry">
                        <mxPoint x="1" as="offset"/>
                    </mxGeometry>
                </mxCell>
                <mxCell id="eJzoHZUbtOtjYsPxJFQZ-20" value="Channels" style="rounded=1;whiteSpace=wrap;html=1;fillColor=#647687;fontColor=#ffffff;strokeColor=#314354;" parent="CBwO-R-Ii1OIMNnKbIEP-1" vertex="1">
                    <mxGeometry x="300" y="1745" width="120" height="60" as="geometry"/>
                </mxCell>
                <mxCell id="eJzoHZUbtOtjYsPxJFQZ-21" value="" style="edgeStyle=none;html=1;" parent="CBwO-R-Ii1OIMNnKbIEP-1" source="eJzoHZUbtOtjYsPxJFQZ-25" target="eJzoHZUbtOtjYsPxJFQZ-26" edge="1">
                    <mxGeometry relative="1" as="geometry"/>
                </mxCell>
                <mxCell id="eJzoHZUbtOtjYsPxJFQZ-22" value="" style="edgeStyle=none;html=1;" parent="CBwO-R-Ii1OIMNnKbIEP-1" source="eJzoHZUbtOtjYsPxJFQZ-25" edge="1">
                    <mxGeometry relative="1" as="geometry">
                        <mxPoint x="730" y="1980" as="targetPoint"/>
                    </mxGeometry>
                </mxCell>
                <mxCell id="eJzoHZUbtOtjYsPxJFQZ-23" value="/articles-details/:articleId" style="edgeLabel;html=1;align=center;verticalAlign=middle;resizable=0;points=[];" parent="eJzoHZUbtOtjYsPxJFQZ-22" vertex="1" connectable="0">
                    <mxGeometry x="-0.1332" relative="1" as="geometry">
                        <mxPoint as="offset"/>
                    </mxGeometry>
                </mxCell>
                <mxCell id="eJzoHZUbtOtjYsPxJFQZ-24" style="edgeStyle=none;html=1;exitX=0.5;exitY=1;exitDx=0;exitDy=0;entryX=0.5;entryY=0;entryDx=0;entryDy=0;" parent="CBwO-R-Ii1OIMNnKbIEP-1" source="eJzoHZUbtOtjYsPxJFQZ-25" edge="1">
                    <mxGeometry relative="1" as="geometry">
                        <mxPoint x="930" y="1935.0000000000002" as="targetPoint"/>
                    </mxGeometry>
                </mxCell>
                <mxCell id="eJzoHZUbtOtjYsPxJFQZ-25" value="Articles" style="rounded=1;whiteSpace=wrap;html=1;fillColor=#647687;fontColor=#ffffff;strokeColor=#314354;" parent="CBwO-R-Ii1OIMNnKbIEP-1" vertex="1">
                    <mxGeometry x="870" y="1745" width="120" height="60" as="geometry"/>
                </mxCell>
                <mxCell id="eJzoHZUbtOtjYsPxJFQZ-26" value="Articles view list" style="whiteSpace=wrap;html=1;fillColor=#647687;strokeColor=#314354;fontColor=#ffffff;rounded=1;" parent="CBwO-R-Ii1OIMNnKbIEP-1" vertex="1">
                    <mxGeometry x="1060" y="1945" width="120" height="60" as="geometry"/>
                </mxCell>
                <mxCell id="eJzoHZUbtOtjYsPxJFQZ-27" value="Article detail" style="whiteSpace=wrap;html=1;fillColor=#647687;strokeColor=#314354;fontColor=#ffffff;rounded=1;" parent="CBwO-R-Ii1OIMNnKbIEP-1" vertex="1">
                    <mxGeometry x="670" y="1945" width="120" height="60" as="geometry"/>
                </mxCell>
                <mxCell id="eJzoHZUbtOtjYsPxJFQZ-28" value="Channels view list" style="whiteSpace=wrap;html=1;fillColor=#647687;strokeColor=#314354;fontColor=#ffffff;rounded=1;" parent="CBwO-R-Ii1OIMNnKbIEP-1" vertex="1">
                    <mxGeometry x="410" y="1945" width="120" height="60" as="geometry"/>
                </mxCell>
                <mxCell id="eJzoHZUbtOtjYsPxJFQZ-29" value="Channel detail" style="whiteSpace=wrap;html=1;fillColor=#647687;strokeColor=#314354;fontColor=#ffffff;rounded=1;" parent="CBwO-R-Ii1OIMNnKbIEP-1" vertex="1">
                    <mxGeometry x="170" y="1945" width="120" height="60" as="geometry"/>
                </mxCell>
                <mxCell id="eJzoHZUbtOtjYsPxJFQZ-30" value="" style="edgeStyle=none;html=1;" parent="CBwO-R-Ii1OIMNnKbIEP-1" target="eJzoHZUbtOtjYsPxJFQZ-33" edge="1">
                    <mxGeometry relative="1" as="geometry">
                        <mxPoint x="930" y="2015" as="sourcePoint"/>
                    </mxGeometry>
                </mxCell>
                <mxCell id="eJzoHZUbtOtjYsPxJFQZ-31" value="/create" style="edgeLabel;html=1;align=center;verticalAlign=middle;resizable=0;points=[];" parent="eJzoHZUbtOtjYsPxJFQZ-30" vertex="1" connectable="0">
                    <mxGeometry x="-0.5518" y="3" relative="1" as="geometry">
                        <mxPoint x="-3" y="19" as="offset"/>
                    </mxGeometry>
                </mxCell>
                <mxCell id="eJzoHZUbtOtjYsPxJFQZ-33" value="Create post" style="whiteSpace=wrap;html=1;fillColor=#e3c800;strokeColor=#B09500;fontColor=#000000;" parent="CBwO-R-Ii1OIMNnKbIEP-1" vertex="1">
                    <mxGeometry x="870" y="2105" width="120" height="60" as="geometry"/>
                </mxCell>
                <mxCell id="eJzoHZUbtOtjYsPxJFQZ-38" value="child router" style="ellipse;whiteSpace=wrap;html=1;aspect=fixed;fontSize=18;fillColor=#60a917;fontColor=#ffffff;strokeColor=#2D7600;" parent="CBwO-R-Ii1OIMNnKbIEP-1" vertex="1">
                    <mxGeometry x="610" y="1630" width="80" height="80" as="geometry"/>
                </mxCell>
                <mxCell id="eJzoHZUbtOtjYsPxJFQZ-39" value="child router" style="ellipse;whiteSpace=wrap;html=1;aspect=fixed;fontSize=18;fillColor=#60a917;fontColor=#ffffff;strokeColor=#2D7600;" parent="CBwO-R-Ii1OIMNnKbIEP-1" vertex="1">
                    <mxGeometry x="890" y="1935" width="80" height="80" as="geometry"/>
                </mxCell>
                <mxCell id="TnpR9RBOYdUWyXLMAM2s-0" style="edgeStyle=none;html=1;entryX=0;entryY=0.5;entryDx=0;entryDy=0;" parent="CBwO-R-Ii1OIMNnKbIEP-1" source="Air7IKERd5YMMg7ctZau-3" target="IxjN-lS2GP4bhqvUeR9_-7" edge="1">
                    <mxGeometry relative="1" as="geometry"/>
                </mxCell>
                <mxCell id="TnpR9RBOYdUWyXLMAM2s-1" style="edgeStyle=none;html=1;entryX=0;entryY=0.5;entryDx=0;entryDy=0;fillColor=#1ba1e2;strokeColor=#006EAF;" parent="CBwO-R-Ii1OIMNnKbIEP-1" source="Air7IKERd5YMMg7ctZau-3" target="IxjN-lS2GP4bhqvUeR9_-3" edge="1">
                    <mxGeometry relative="1" as="geometry">
                        <Array as="points">
                            <mxPoint x="425" y="370"/>
                            <mxPoint x="880" y="370"/>
                            <mxPoint x="880" y="320"/>
                        </Array>
                    </mxGeometry>
                </mxCell>
                <mxCell id="h3U-ndq0wjFjbMxy49mH-8" style="edgeStyle=none;html=1;" parent="CBwO-R-Ii1OIMNnKbIEP-1" source="h3U-ndq0wjFjbMxy49mH-5" target="h3U-ndq0wjFjbMxy49mH-7" edge="1">
                    <mxGeometry relative="1" as="geometry"/>
                </mxCell>
                <mxCell id="h3U-ndq0wjFjbMxy49mH-5" value="boards view list" style="rounded=0;whiteSpace=wrap;html=1;fontSize=18;fillColor=#6a00ff;fontColor=#ffffff;strokeColor=#3700CC;" parent="CBwO-R-Ii1OIMNnKbIEP-1" vertex="1">
                    <mxGeometry x="668.75" y="380" width="152.5" height="30" as="geometry"/>
                </mxCell>
                <mxCell id="h3U-ndq0wjFjbMxy49mH-10" style="edgeStyle=none;html=1;entryX=1;entryY=0.5;entryDx=0;entryDy=0;" parent="CBwO-R-Ii1OIMNnKbIEP-1" source="h3U-ndq0wjFjbMxy49mH-7" target="h3U-ndq0wjFjbMxy49mH-9" edge="1">
                    <mxGeometry relative="1" as="geometry">
                        <Array as="points">
                            <mxPoint x="745" y="594"/>
                        </Array>
                    </mxGeometry>
                </mxCell>
                <mxCell id="h3U-ndq0wjFjbMxy49mH-44" value="/boards/channels" style="edgeLabel;html=1;align=center;verticalAlign=middle;resizable=0;points=[];fontSize=18;" parent="h3U-ndq0wjFjbMxy49mH-10" vertex="1" connectable="0">
                    <mxGeometry x="-0.5181" y="-1" relative="1" as="geometry">
                        <mxPoint x="1" y="-16" as="offset"/>
                    </mxGeometry>
                </mxCell>
                <mxCell id="h3U-ndq0wjFjbMxy49mH-7" value="child router" style="ellipse;whiteSpace=wrap;html=1;aspect=fixed;fontSize=18;fillColor=#60a917;fontColor=#ffffff;strokeColor=#2D7600;" parent="CBwO-R-Ii1OIMNnKbIEP-1" vertex="1">
                    <mxGeometry x="705" y="440" width="80" height="80" as="geometry"/>
                </mxCell>
                <mxCell id="h3U-ndq0wjFjbMxy49mH-13" style="edgeStyle=none;html=1;exitX=0.173;exitY=0.975;exitDx=0;exitDy=0;entryX=0.5;entryY=0;entryDx=0;entryDy=0;exitPerimeter=0;" parent="CBwO-R-Ii1OIMNnKbIEP-1" source="h3U-ndq0wjFjbMxy49mH-9" target="h3U-ndq0wjFjbMxy49mH-11" edge="1">
                    <mxGeometry relative="1" as="geometry"/>
                </mxCell>
                <mxCell id="h3U-ndq0wjFjbMxy49mH-14" style="edgeStyle=none;html=1;exitX=0.82;exitY=1.027;exitDx=0;exitDy=0;entryX=0.5;entryY=0;entryDx=0;entryDy=0;exitPerimeter=0;" parent="CBwO-R-Ii1OIMNnKbIEP-1" source="h3U-ndq0wjFjbMxy49mH-9" target="h3U-ndq0wjFjbMxy49mH-12" edge="1">
                    <mxGeometry relative="1" as="geometry"/>
                </mxCell>
                <mxCell id="h3U-ndq0wjFjbMxy49mH-9" value="CHANNELS ROOT COMPONENT" style="rounded=0;whiteSpace=wrap;html=1;fontSize=18;fillColor=#60a917;fontColor=#ffffff;strokeColor=#2D7600;" parent="CBwO-R-Ii1OIMNnKbIEP-1" vertex="1">
                    <mxGeometry x="305" y="574.28" width="285" height="40" as="geometry"/>
                </mxCell>
                <mxCell id="h3U-ndq0wjFjbMxy49mH-16" style="edgeStyle=none;html=1;entryX=0;entryY=0.5;entryDx=0;entryDy=0;" parent="CBwO-R-Ii1OIMNnKbIEP-1" source="h3U-ndq0wjFjbMxy49mH-11" target="h3U-ndq0wjFjbMxy49mH-15" edge="1">
                    <mxGeometry relative="1" as="geometry">
                        <Array as="points">
                            <mxPoint x="354" y="730"/>
                        </Array>
                    </mxGeometry>
                </mxCell>
                <mxCell id="h3U-ndq0wjFjbMxy49mH-11" value="channels view list" style="rounded=0;whiteSpace=wrap;html=1;fontSize=18;fillColor=#6a00ff;fontColor=#ffffff;strokeColor=#3700CC;" parent="CBwO-R-Ii1OIMNnKbIEP-1" vertex="1">
                    <mxGeometry x="278" y="649.28" width="152.5" height="30" as="geometry"/>
                </mxCell>
                <mxCell id="h3U-ndq0wjFjbMxy49mH-17" style="edgeStyle=none;html=1;fillColor=#e3c800;strokeColor=#FFD800;strokeWidth=2;entryX=0.5;entryY=0;entryDx=0;entryDy=0;" parent="CBwO-R-Ii1OIMNnKbIEP-1" source="h3U-ndq0wjFjbMxy49mH-12" target="h3U-ndq0wjFjbMxy49mH-29" edge="1">
                    <mxGeometry relative="1" as="geometry">
                        <mxPoint x="565" y="759.28" as="targetPoint"/>
                        <Array as="points">
                            <mxPoint x="539" y="769.28"/>
                            <mxPoint x="745" y="769.28"/>
                        </Array>
                    </mxGeometry>
                </mxCell>
                <mxCell id="h3U-ndq0wjFjbMxy49mH-12" value="&lt;font color=&quot;#a3a3a3&quot;&gt;(top/recent)?&lt;/font&gt; articles view list" style="rounded=0;whiteSpace=wrap;html=1;fontSize=18;fillColor=#6a00ff;fontColor=#ffffff;strokeColor=#3700CC;" parent="CBwO-R-Ii1OIMNnKbIEP-1" vertex="1">
                    <mxGeometry x="462.5" y="633.28" width="152.5" height="50.72" as="geometry"/>
                </mxCell>
                <mxCell id="h3U-ndq0wjFjbMxy49mH-20" style="edgeStyle=none;html=1;entryX=0.5;entryY=0;entryDx=0;entryDy=0;strokeColor=#FFFFFF;strokeWidth=1;" parent="CBwO-R-Ii1OIMNnKbIEP-1" source="h3U-ndq0wjFjbMxy49mH-15" target="h3U-ndq0wjFjbMxy49mH-18" edge="1">
                    <mxGeometry relative="1" as="geometry"/>
                </mxCell>
                <mxCell id="h3U-ndq0wjFjbMxy49mH-45" value="/channels/:id/articles" style="edgeLabel;html=1;align=center;verticalAlign=middle;resizable=0;points=[];fontSize=18;" parent="h3U-ndq0wjFjbMxy49mH-20" vertex="1" connectable="0">
                    <mxGeometry x="-0.29" relative="1" as="geometry">
                        <mxPoint y="2" as="offset"/>
                    </mxGeometry>
                </mxCell>
                <mxCell id="h3U-ndq0wjFjbMxy49mH-15" value="child router" style="ellipse;whiteSpace=wrap;html=1;aspect=fixed;fontSize=18;fillColor=#60a917;fontColor=#ffffff;strokeColor=#2D7600;" parent="CBwO-R-Ii1OIMNnKbIEP-1" vertex="1">
                    <mxGeometry x="407.5" y="690" width="80" height="80" as="geometry"/>
                </mxCell>
                <mxCell id="h3U-ndq0wjFjbMxy49mH-28" style="edgeStyle=none;html=1;entryX=0.5;entryY=0;entryDx=0;entryDy=0;strokeColor=#FFFFFF;strokeWidth=1;" parent="CBwO-R-Ii1OIMNnKbIEP-1" source="h3U-ndq0wjFjbMxy49mH-18" target="h3U-ndq0wjFjbMxy49mH-24" edge="1">
                    <mxGeometry relative="1" as="geometry"/>
                </mxCell>
                <mxCell id="h3U-ndq0wjFjbMxy49mH-31" style="edgeStyle=none;html=1;entryX=0;entryY=0.5;entryDx=0;entryDy=0;strokeColor=#FFFFFF;strokeWidth=1;" parent="CBwO-R-Ii1OIMNnKbIEP-1" source="h3U-ndq0wjFjbMxy49mH-18" target="h3U-ndq0wjFjbMxy49mH-23" edge="1">
                    <mxGeometry relative="1" as="geometry">
                        <Array as="points">
                            <mxPoint x="448" y="954.28"/>
                        </Array>
                    </mxGeometry>
                </mxCell>
                <mxCell id="h3U-ndq0wjFjbMxy49mH-33" style="edgeStyle=none;html=1;entryX=1;entryY=0.5;entryDx=0;entryDy=0;strokeColor=#FFFFFF;strokeWidth=1;" parent="CBwO-R-Ii1OIMNnKbIEP-1" source="h3U-ndq0wjFjbMxy49mH-18" target="h3U-ndq0wjFjbMxy49mH-32" edge="1">
                    <mxGeometry relative="1" as="geometry">
                        <Array as="points">
                            <mxPoint x="448" y="954.28"/>
                        </Array>
                    </mxGeometry>
                </mxCell>
                <mxCell id="h3U-ndq0wjFjbMxy49mH-36" value="&lt;font style=&quot;font-size: 18px&quot;&gt;[USER GUARD] =&amp;gt;&amp;nbsp;&lt;br&gt;{Regisered, Verified}&lt;br&gt;&lt;/font&gt;" style="edgeLabel;html=1;align=center;verticalAlign=middle;resizable=0;points=[];" parent="h3U-ndq0wjFjbMxy49mH-33" vertex="1" connectable="0">
                    <mxGeometry x="0.3108" y="-2" relative="1" as="geometry">
                        <mxPoint x="17" y="2" as="offset"/>
                    </mxGeometry>
                </mxCell>
                <mxCell id="h3U-ndq0wjFjbMxy49mH-18" value="ARTICLES ROOT COMPONENT" style="rounded=0;whiteSpace=wrap;html=1;fontSize=18;fillColor=#60a917;fontColor=#ffffff;strokeColor=#2D7600;" parent="CBwO-R-Ii1OIMNnKbIEP-1" vertex="1">
                    <mxGeometry x="305" y="849.28" width="285" height="40" as="geometry"/>
                </mxCell>
                <mxCell id="h3U-ndq0wjFjbMxy49mH-30" style="edgeStyle=none;html=1;strokeColor=#FFFFFF;strokeWidth=1;" parent="CBwO-R-Ii1OIMNnKbIEP-1" source="h3U-ndq0wjFjbMxy49mH-23" target="h3U-ndq0wjFjbMxy49mH-29" edge="1">
                    <mxGeometry relative="1" as="geometry"/>
                </mxCell>
                <mxCell id="h3U-ndq0wjFjbMxy49mH-23" value="articles view list" style="rounded=0;whiteSpace=wrap;html=1;fontSize=18;fillColor=#6a00ff;fontColor=#ffffff;strokeColor=#3700CC;" parent="CBwO-R-Ii1OIMNnKbIEP-1" vertex="1">
                    <mxGeometry x="490" y="939.28" width="165" height="30" as="geometry"/>
                </mxCell>
                <mxCell id="h3U-ndq0wjFjbMxy49mH-55" style="edgeStyle=none;html=1;entryX=0.5;entryY=0;entryDx=0;entryDy=0;fontSize=18;strokeColor=#FFFFFF;strokeWidth=1;" parent="CBwO-R-Ii1OIMNnKbIEP-1" source="h3U-ndq0wjFjbMxy49mH-24" target="h3U-ndq0wjFjbMxy49mH-54" edge="1">
                    <mxGeometry relative="1" as="geometry"/>
                </mxCell>
                <mxCell id="h3U-ndq0wjFjbMxy49mH-24" value="(top) users view list" style="rounded=0;whiteSpace=wrap;html=1;fontSize=18;fillColor=#6a00ff;fontColor=#ffffff;strokeColor=#3700CC;" parent="CBwO-R-Ii1OIMNnKbIEP-1" vertex="1">
                    <mxGeometry x="362.5" y="985.0000000000001" width="170" height="30" as="geometry"/>
                </mxCell>
                <mxCell id="h3U-ndq0wjFjbMxy49mH-38" style="edgeStyle=none;html=1;entryX=0.5;entryY=0;entryDx=0;entryDy=0;fontSize=18;strokeColor=#FFFFFF;strokeWidth=1;" parent="CBwO-R-Ii1OIMNnKbIEP-1" source="h3U-ndq0wjFjbMxy49mH-29" target="h3U-ndq0wjFjbMxy49mH-37" edge="1">
                    <mxGeometry relative="1" as="geometry"/>
                </mxCell>
                <mxCell id="h3U-ndq0wjFjbMxy49mH-46" value="/articles/article/:id" style="edgeLabel;html=1;align=center;verticalAlign=middle;resizable=0;points=[];fontSize=18;" parent="h3U-ndq0wjFjbMxy49mH-38" vertex="1" connectable="0">
                    <mxGeometry x="-0.2751" y="2" relative="1" as="geometry">
                        <mxPoint as="offset"/>
                    </mxGeometry>
                </mxCell>
                <mxCell id="h3U-ndq0wjFjbMxy49mH-29" value="child router" style="ellipse;whiteSpace=wrap;html=1;aspect=fixed;fontSize=18;fillColor=#60a917;fontColor=#ffffff;strokeColor=#2D7600;" parent="CBwO-R-Ii1OIMNnKbIEP-1" vertex="1">
                    <mxGeometry x="705" y="914.28" width="80" height="80" as="geometry"/>
                </mxCell>
                <mxCell id="h3U-ndq0wjFjbMxy49mH-35" style="edgeStyle=none;html=1;entryX=0.5;entryY=0;entryDx=0;entryDy=0;strokeColor=#FFFFFF;strokeWidth=1;" parent="CBwO-R-Ii1OIMNnKbIEP-1" source="h3U-ndq0wjFjbMxy49mH-32" target="h3U-ndq0wjFjbMxy49mH-34" edge="1">
                    <mxGeometry relative="1" as="geometry"/>
                </mxCell>
                <mxCell id="h3U-ndq0wjFjbMxy49mH-48" value="/create" style="edgeLabel;html=1;align=center;verticalAlign=middle;resizable=0;points=[];fontSize=18;" parent="h3U-ndq0wjFjbMxy49mH-35" vertex="1" connectable="0">
                    <mxGeometry x="-0.2675" y="2" relative="1" as="geometry">
                        <mxPoint x="-2" y="27" as="offset"/>
                    </mxGeometry>
                </mxCell>
                <mxCell id="h3U-ndq0wjFjbMxy49mH-50" style="edgeStyle=none;html=1;entryX=0.5;entryY=0;entryDx=0;entryDy=0;fontSize=18;strokeColor=#FFFFFF;strokeWidth=1;" parent="CBwO-R-Ii1OIMNnKbIEP-1" source="h3U-ndq0wjFjbMxy49mH-32" target="h3U-ndq0wjFjbMxy49mH-49" edge="1">
                    <mxGeometry relative="1" as="geometry">
                        <Array as="points">
                            <mxPoint x="130" y="1020"/>
                            <mxPoint x="321" y="1020"/>
                        </Array>
                    </mxGeometry>
                </mxCell>
                <mxCell id="h3U-ndq0wjFjbMxy49mH-51" value="?" style="edgeLabel;html=1;align=center;verticalAlign=middle;resizable=0;points=[];fontSize=18;" parent="h3U-ndq0wjFjbMxy49mH-50" vertex="1" connectable="0">
                    <mxGeometry x="-0.4639" y="-2" relative="1" as="geometry">
                        <mxPoint as="offset"/>
                    </mxGeometry>
                </mxCell>
                <mxCell id="h3U-ndq0wjFjbMxy49mH-52" value="[USER GUARD] =&amp;gt;&amp;nbsp;&lt;br&gt;{IsOwner}" style="edgeLabel;html=1;align=center;verticalAlign=middle;resizable=0;points=[];fontSize=18;" parent="h3U-ndq0wjFjbMxy49mH-50" vertex="1" connectable="0">
                    <mxGeometry x="0.5484" y="-1" relative="1" as="geometry">
                        <mxPoint y="-12" as="offset"/>
                    </mxGeometry>
                </mxCell>
                <mxCell id="h3U-ndq0wjFjbMxy49mH-63" value="&lt;font color=&quot;#f5f5f5&quot;&gt;/update&lt;/font&gt;" style="edgeLabel;html=1;align=center;verticalAlign=middle;resizable=0;points=[];fontSize=18;fontColor=#A3A3A3;" parent="h3U-ndq0wjFjbMxy49mH-50" vertex="1" connectable="0">
                    <mxGeometry x="0.7201" relative="1" as="geometry">
                        <mxPoint y="8" as="offset"/>
                    </mxGeometry>
                </mxCell>
                <mxCell id="h3U-ndq0wjFjbMxy49mH-32" value="child router" style="ellipse;whiteSpace=wrap;html=1;aspect=fixed;fontSize=18;fillColor=#60a917;fontColor=#ffffff;strokeColor=#2D7600;" parent="CBwO-R-Ii1OIMNnKbIEP-1" vertex="1">
                    <mxGeometry x="90" y="914.28" width="80" height="80" as="geometry"/>
                </mxCell>
                <mxCell id="h3U-ndq0wjFjbMxy49mH-34" value="Create Article Component" style="rounded=1;whiteSpace=wrap;html=1;fontSize=18;fillColor=#a20025;fontColor=#ffffff;strokeColor=#6F0000;" parent="CBwO-R-Ii1OIMNnKbIEP-1" vertex="1">
                    <mxGeometry x="25" y="1100.0000000000002" width="210" height="40" as="geometry"/>
                </mxCell>
                <mxCell id="h3U-ndq0wjFjbMxy49mH-40" style="edgeStyle=none;html=1;fontSize=18;strokeColor=#FFFFFF;strokeWidth=1;" parent="CBwO-R-Ii1OIMNnKbIEP-1" source="h3U-ndq0wjFjbMxy49mH-37" target="h3U-ndq0wjFjbMxy49mH-39" edge="1">
                    <mxGeometry relative="1" as="geometry"/>
                </mxCell>
                <mxCell id="h3U-ndq0wjFjbMxy49mH-42" value="[USER GUARD] =&amp;gt;&lt;br&gt;{Registered, Verified}" style="edgeLabel;html=1;align=center;verticalAlign=middle;resizable=0;points=[];fontSize=18;" parent="h3U-ndq0wjFjbMxy49mH-40" vertex="1" connectable="0">
                    <mxGeometry x="-0.2195" y="1" relative="1" as="geometry">
                        <mxPoint x="-1" y="9" as="offset"/>
                    </mxGeometry>
                </mxCell>
                <mxCell id="h3U-ndq0wjFjbMxy49mH-37" value="ARTICLES VIEW COMPONENT" style="rounded=0;whiteSpace=wrap;html=1;fontSize=18;fillColor=#60a917;fontColor=#ffffff;strokeColor=#2D7600;" parent="CBwO-R-Ii1OIMNnKbIEP-1" vertex="1">
                    <mxGeometry x="602.5" y="1100.0000000000002" width="285" height="40" as="geometry"/>
                </mxCell>
                <mxCell id="h3U-ndq0wjFjbMxy49mH-39" value="post comment action" style="rounded=0;whiteSpace=wrap;html=1;fontSize=18;fillColor=#6a00ff;fontColor=#ffffff;strokeColor=#3700CC;" parent="CBwO-R-Ii1OIMNnKbIEP-1" vertex="1">
                    <mxGeometry x="650" y="1270.0000000000002" width="190" height="30" as="geometry"/>
                </mxCell>
                <mxCell id="h3U-ndq0wjFjbMxy49mH-49" value="Update Article Component" style="rounded=1;whiteSpace=wrap;html=1;fontSize=18;fillColor=#647687;fontColor=#ffffff;strokeColor=#314354;" parent="CBwO-R-Ii1OIMNnKbIEP-1" vertex="1">
                    <mxGeometry x="210.5" y="1150" width="220" height="40" as="geometry"/>
                </mxCell>
                <mxCell id="h3U-ndq0wjFjbMxy49mH-57" style="edgeStyle=none;html=1;entryX=0.5;entryY=0;entryDx=0;entryDy=0;fontSize=18;strokeColor=#FFFFFF;strokeWidth=1;" parent="CBwO-R-Ii1OIMNnKbIEP-1" source="h3U-ndq0wjFjbMxy49mH-54" target="h3U-ndq0wjFjbMxy49mH-56" edge="1">
                    <mxGeometry relative="1" as="geometry"/>
                </mxCell>
                <mxCell id="h3U-ndq0wjFjbMxy49mH-62" value="localhost:4200/profile/:id" style="edgeLabel;html=1;align=center;verticalAlign=middle;resizable=0;points=[];fontSize=18;" parent="h3U-ndq0wjFjbMxy49mH-57" vertex="1" connectable="0">
                    <mxGeometry x="-0.3971" y="1" relative="1" as="geometry">
                        <mxPoint x="2" y="16" as="offset"/>
                    </mxGeometry>
                </mxCell>
                <mxCell id="h3U-ndq0wjFjbMxy49mH-54" value="child router" style="ellipse;whiteSpace=wrap;html=1;aspect=fixed;fontSize=18;fillColor=#60a917;fontColor=#ffffff;strokeColor=#2D7600;" parent="CBwO-R-Ii1OIMNnKbIEP-1" vertex="1">
                    <mxGeometry x="407.5" y="1200" width="80" height="80" as="geometry"/>
                </mxCell>
                <mxCell id="h3U-ndq0wjFjbMxy49mH-60" style="edgeStyle=none;html=1;fontSize=18;strokeColor=#FFFFFF;strokeWidth=1;" parent="CBwO-R-Ii1OIMNnKbIEP-1" source="h3U-ndq0wjFjbMxy49mH-56" target="h3U-ndq0wjFjbMxy49mH-59" edge="1">
                    <mxGeometry relative="1" as="geometry"/>
                </mxCell>
                <mxCell id="h3U-ndq0wjFjbMxy49mH-61" value="?" style="edgeLabel;html=1;align=center;verticalAlign=middle;resizable=0;points=[];fontSize=18;" parent="h3U-ndq0wjFjbMxy49mH-60" vertex="1" connectable="0">
                    <mxGeometry x="-0.5206" y="-1" relative="1" as="geometry">
                        <mxPoint x="1" y="21" as="offset"/>
                    </mxGeometry>
                </mxCell>
                <mxCell id="h3U-ndq0wjFjbMxy49mH-56" value="Profile Component" style="rounded=1;whiteSpace=wrap;html=1;fontSize=18;fillColor=#a20025;fontColor=#ffffff;strokeColor=#6F0000;" parent="CBwO-R-Ii1OIMNnKbIEP-1" vertex="1">
                    <mxGeometry x="368.75" y="1360" width="157.5" height="40" as="geometry"/>
                </mxCell>
                <mxCell id="h3U-ndq0wjFjbMxy49mH-59" value="follow action" style="rounded=0;whiteSpace=wrap;html=1;fontSize=18;fillColor=#647687;fontColor=#ffffff;strokeColor=#314354;" parent="CBwO-R-Ii1OIMNnKbIEP-1" vertex="1">
                    <mxGeometry x="385" y="1440" width="125" height="30" as="geometry"/>
                </mxCell>
            </root>
        </mxGraphModel>
    </diagram>
</mxfile>